<svg xmlns="http://www.w3.org/2000/svg" xmlns:xlink="http://www.w3.org/1999/xlink" width="0" height="0" style="position:absolute">

    <symbol id="Icon-about" viewBox="250 250 100 100">
        <path d="M309.4 290.3c-.1-1-.7-1.8-2-1.7-5.1.5-10.2.7-15.3 1.3-1-.2-2.1.1-2.5 1.4-.8 3.3-1.7 6.7-2.3 10.1-.1.7.1 1.3.4 1.7.2.8.9 1.6 1.9 1.7 2 .2 3.9.3 5.9.4-.3 9.6-.7 19.2-.9 28.8-.3 1.2.4 2.7 2 2.6 3-.1 6-.1 8.9 0 .5 0 1-.1 1.3-.4.7-.3 1.3-.9 1.3-1.9-.2-14.4 1.2-28.8 1.4-43.3 0-.3 0-.5-.1-.7zM300.7 264.2h-.5c-.3-.1-.5-.2-.8-.2h-.1c-3 .2-6 1.7-7.9 4.1-1.7 2.1-2.5 4.8-2.1 7.4.7 4.7 5.1 8.2 10.2 8.2.8 0 1.6-.1 2.4-.3 3.9-1 7.1-4.8 7.6-9.4.6-5.3-3.9-8.9-8.8-9.8zM300.3 254.7c-8.8 0-17.3 2.2-24.6 6.4-6.5 3.7-12.9 11.7-16.5 18-6.7 11.9-6.5 28.5.5 42.3 3.6 7 9.1 12.7 15.9 16.4 6.3 3.4 16.4 7.4 24.3 7.4 24.4 0 44.4-19.4 45.6-44.3v-1.3c.1-8-3.5-17.2-4.6-19.8-6.4-15.4-22.1-25.1-40.6-25.1z"/>
    </symbol>

    <symbol id="Icon-contact" viewBox="0 0 100 100">
        <path d="M22.9 7.7c-1.6 1.9-1 8.9-1 13.4-.2 22.8 0 41.1 1.7 63.9.1 1.8.6 6.1 1.5 7.7 1.6 2.7 5.3 2.8 8.1 2.9 14.2.6 28.1-.2 42.2-1.7 2.2-.2 4.5-.5 6.3-1.8 3.8-2.9 1.3-11.5 1.2-15.7-.1-7.5-.1-15.1 0-22.6.1-8.3.5-16.9.4-25.4 0-4.5 0-9.1-.4-13.6-.2-2.7-.1-7.4-2.6-9.2-1.7-1.3-5.6-.6-7.6-.6-3.1-.1-6.3-.1-9.4-.1-7.3 0-14.6.1-22 .4-4.5.1-15.2-1.5-18.4 2.4zM83.8 84.3c-3.6 1-7 1.5-10.6 2.2-4.6.9-9.5.9-14.2 1-12.2.2-23-.7-35.1-.8M29.4 67.4c-3.4-.3-6.7.3-9.6 2.1-2.9 1.7-3.9 4.9-1.8 7.7 1.4 1.8 3.4 2.8 5.4 3.9M28.2 52.3c-1.8 0-3.5-.4-5.3-.2-1.8.1-3.5.7-4.9 1.8-4.6 3.8 0 8.3 3.7 10.1M29.9 34.8c-3.8-.3-7.2-.7-10.7 1.3-2.4 1.4-3.6 4.1-2 6.7 1 1.7 2.8 2.7 4.6 3.6M29.4 16.2c-3.2-.2-7.1-.5-9.8 1.6-1.8 1.4-2.9 3.9-2.4 6.2s2.6 4.2 4.9 4.1M67.4 61.9c-3.7 1.9-9.1 1.9-13.1 1.8-3.7-.1-7.5-1-10.6-3.1-3.6-2.5-4.7-5.8-6.1-9.7-1.7-4.6.7-9.2 3.4-12.9 3.8-5 8.9-6.8 14.7-6.7 3.4.1 9.6 1.8 11.8 4.6 2 2.5 3.4 5.7 3.9 8.8.3 1.6.1 3.2-.7 4.6-1.6 2.8-6.4 4.2-8.4 1.2-.8-1.1-1.2-2.5-1.7-3.8-2-4.3-7.6-7.5-12.1-4.6-2 1.4-3.2 4-2.6 6.4.7 2.6 3.2 4.4 5.8 5.1 1.9.5 4 .6 5.8-.3 2.5-1.2 4.3-5.1 2.6-7.6"/>
    </symbol>

    <symbol id="Icon-cross" viewBox="0 0 128 128">
        <path d="M2.3 2l123.3 123.3M125.6 2L2.3 125.3"/>
    </symbol>

    <symbol id="Icon-facebook" viewBox="0 0 100 100">
        <path d="M90.547 7.903c.678-1.44-.025-3.607-2.12-3.66-23.388-.588-53.65 1.226-77.037.33-.738-.03-1.296.222-1.69.615-.8.326-1.424 1.044-1.424 2.17-.01 27.813-1.186 56.3 2.71 83.92.125.884.598 1.4 1.195 1.633.396.496 1.003.833 1.833.828 4.482-.023 10.924-.304 15.407-.328.958-.005 1.62-.46 2-1.09.646-.374 1.114-1.047 1.114-2.024V62.432c0-.123-.02-.232-.034-.346.015-.104.034-.208.034-.31 0-1.474-1.13-2.282-2.458-2.46-1.82-.24-4.627-.304-6.456-.32-.1-.58-.21-2.14-.313-2.72 1.67-.406 4.364-.55 6.113-.564.28-.002.525-.054.755-.126 1.292.08 2.548-.687 2.36-2.333-.913-7.92-.94-14.846-.34-22.79 3.298-7.934 11.98-10.755 20.008-9.748v3.86c-14.4.532-17.163 14.664-14.008 27.037.08.31.207.565.357.788.174 1.06.954 2 2.34 2h6.066v3.943c-2.006 1.037-4.12.745-6.39 1.062-.028.004-.05.017-.076.022-1.278-.063-2.53.712-2.385 2.35.613 6.982.977 20.863 1.31 27.864.06 1.22.828 1.964 1.74 2.244.3.137.647.216 1.047.216 15.846.012 29.728.293 45.567-.328.92-.036 1.564-.483 1.95-1.088.657-.375 1.143-1.05 1.165-2.027.617-26.882-.305-53.76-.328-80.643.002-.04-.008-.072-.01-.11zm-4.55 79.01c-14.573.51-27.187.304-41.767.274-.274-6.804-.587-17.727-1.035-23.27 2.637-.542 5.156-.59 7.463-1.985.79-.477 1.13-1.177 1.16-1.888.038-.175.058-.363.058-.563v-7.54c0-1.592-1.24-2.383-2.476-2.376-.198-.05-.407-.082-.64-.082H42.74c-2.215-9.538-.964-20.47 11.27-19.997 1.247.048 1.994-.686 2.26-1.598.505-.395.853-1.005.853-1.844v-7.54c0-1.6-1.252-2.39-2.493-2.375-11.395-1.928-22.762 2.075-27.25 13.195-.212.525-.23.993-.116 1.397-.52 7.06-.54 13.107.115 20.144-2.212.138-5.407.502-7.46 1.328-1.154.464-1.965 1.468-1.768 2.732-.002.205.01.412.05.62.365 1.85.673 4.696.983 6.556.193 1.158 1.454 1.855 2.563 1.792.046.002.087.013.136.013 1.586 0 4.154.013 5.735.107v24.51c-3.36.063-8.683.214-12.042.27-3.533-26.065-2.46-52.99-2.39-79.25 22.217.718 50.59-.814 72.463-.434.046 25.936.884 51.87.352 77.804z"/>
    </symbol>

    <symbol id="Icon-gallery" viewBox="0 0 100 100">
        <path d="M10.8 29.4c-.9.1-1.6.3-1.9.8-.2.4-.2.9-.3 1.3-.1 6.8-.5 13.5-1 20.2-.3 6.1-.7 12.2-1 18.3-.1 2.7-.2 5.3 0 8 .1 1.9-.2 4.5.5 6.3 1.1 2.9 6.5 2.5 9 2.8 8.6.9 17.3 1.2 26 1.5 7.6.2 15.2.7 22.8.3 5-.2 10-.9 14.9-1.7 3.8-.6 9.5-.3 12.2-3.6 2.6-3.2 1.2-8.1.9-11.9-.3-5.2-.6-10.3-.8-15.5-.1-2.4-.3-4.7-.4-7.1-.3-5.7-.2-13.4-1.6-17.1-1.2-3.2-11.8-1.5-17.7-1.5-3 0-6 .8-9 .9-3.4.1-6.9-.1-10.3-.1-7.7-.1-15.3-.2-23-.2-3.6 0-7.3-.3-10.9-.7-1.2-.2-5.7-1.2-8.4-1zM15.6 73c.1 2.3-.6 6.4 2 7.5 1.1.5 2.4.4 3.6.3 6.5-.4 12.7.6 19.1 1.3 6.6.6 13.4.7 20 .3 3.8-.2 7.5-1 11.2-1.7 3-.5 7.5.3 10.2-1.4 2.8-1.7 1.9-6.8 2-9.8.3-6.1-.3-12.5-.7-18.6-.2-2.7-.3-5.4-.7-8.1-.1-.8-.1-2.4-.8-3-1.2-.9-5.4-.7-6.9-.6-6.9.2-13.9-1.3-20.8-1.1-5.9.2-11.7-.1-17.5 0-5.8 0-11.6.1-17.4 0-.5 0-.9 0-1.3.2-2 1.1-1.3 8.8-1.3 10.8 0 2.7.1 5.5-.1 8.2-.3 5.4-.8 10.5-.6 15.7zM22.7 30.7c4.6-1.7 7.1-5 10.3-8.6 3.2-3.7 7-7.1 11-9.9 1.8-1.3 3.6-1.2 5.9-.9 3.9.5 6.7 4.9 9.7 7.4 5.1 4.2 7.9 7.2 12.5 11.8"/><path d="M28.9 46.5c-2.2 2-2.1 6.9.3 8.3 3 1.8 6.8-.3 7.2-3.7.2-2-.8-4.1-2.6-5-1.2-.6-2.6-.7-3.9-.3-.4.2-.7.4-1 .7zM53 61.5c.1.3.3.6.5.9.8 1.4 1.7 2.7 2.5 4.1 1 1.8 3.5 6.6-.1 7.2-6.1 1-14 .3-20.1-.3-.6-.1 4.1-6.1 4.4-6.6 1.3-2.2 2.6-3.4 4-5.6 1.1-1.7 3.5-7.1 6.4-4.3 1.2 1.2 1.7 3 2.4 4.6zM56.4 66.7c1.5-.3 3-2.2 4.2-3 1.8-1.2 4.1-4.3 6.6-3.3 2.6 1.1 5.4 5.5 7.2 7.6.8 1 1.7 2.3 1.3 3.5-.3.8-1 1.4-1.9 1.6-.8.2-1.7.2-2.6.2-4.3-.1-9.1.3-13.3-.6"/>
    </symbol>

    <symbol id="Icon-google" viewBox="0 0 184.2 184.2">
        <path d="M162.9 90.5c-.6-1.9-1-5.6-1.1-7.6 0-1.8-1.6-2.7-3-2.5-.2-.1-.5-.1-.8-.1-3.1 0-6.1-.1-9.2-.3-.5-5.8-1.1-6.2-1.6-12-.2-1.7-1.6-2.6-3-2.5-.2-.1-.5-.1-.8-.1-4.1 0-6.3 0-10.4.6-1.9.3-2.7 2.1-2.4 3.6-.2.4-.2 1-.1 1.5 1 4.6.1 3.7 1 8.3-3.6.3-7.1 1-10.4 2.6-1.2.6-1.5 1.6-1.3 2.6v.3c0 3.4.1 6.8 1.3 10 .5 1.2 1.5 1.7 2.5 1.8.4.1.8.1 1.3.1 2.2-.4 4.4-.8 6.6-.9 0 4.1.1 8.4.6 12.5.2 1.7 1.7 2.5 3 2.5.3.1.5.1.8.1h12.3c1.4 0 2.2-.9 2.5-2 .2-.3.2-.8.2-1.2-.5-4.2-.6-6.7-.6-11 3.6-.3 7.2-.4 10.8-.4 2.5 0 3.1-2.8 2-4.3-.1-.6-.1-1.1-.2-1.6zm-14.8 1c-.2 0-.3.1-.4.1-1.4-.1-2.8.8-2.8 2.5 0 4.4 0 7 .4 11.4H137c-.3-4-.3-8.1-.3-12 0-.3 0-.5-.1-.7 0-1.3-.9-2.5-2.5-2.5-2.9 0-5.7.4-8.6.9-.4-1.7-.4-3.5-.5-5.3 2.9-1.1 6-1.4 9-1.4h.4c1.5-.1 3.1-1.3 2.7-3.3-1-5.2-.3-5-1.4-10.2 2.7-.2 3.6-.3 6.4-.3.5 5.5 1 5.7 1.5 11.2 0 .3.1.5.2.7.2 1.2 1 2.3 2.5 2.5 3.5.5 6.9.6 10.4.6.2 1.2.4 4.2.8 5.4-3.1-.1-6.3.1-9.4.4zm0 0M105 55.4c-2.7-19.2-18.7-26-32.8-26-1.7 0-3.4.1-5 .3-9.5.3-18.5 4.5-24.3 11.3-4.9 5.8-7 12.7-6.1 20.1 2 15.9 15.6 27 33.2 27 1.9 0 3.8-.1 5.8-.4 15.6-2.3 31.4-16.1 29.2-32.3zM77.6 80.3c-2.7.8-5.5 1.2-8.3 1.2-10.6 0-19.9-5.9-24.4-15.4-2.3-4.8-2.5-9.9-.6-14.6 2.3-5.8 7.7-10.8 14.4-13.4.3 0 .5-.1.7-.1 2.6-.8 5.2-1.3 7.8-1.7h1.1c.4 0 .8-.1 1.2-.2 1-.1 2-.1 2.9-.1 13.6 0 23 7 25.6 19.1 1.7 7.3-2.4 20-20.4 25.2zm0 0M94.3 93.1c15.1-7.7 22.8-18.1 24.1-32.8 1.2-12.8-4.7-26.2-15.9-36 1.5-3.6 2.5-7 3.2-10.1.2-1.1 0-2.2-.7-3-.7-.9-1.9-1.4-3-1.4s-2 .5-2.5 1.3c-3.2 2.6-7 4.9-11.8 7.1-4.3-.9-8.7-1.4-13.3-1.4-20 0-38.5 9.1-48.2 23.6-6.2 9.2-7.1 21.7-2.5 32.7 6.8 16.3 20.5 22.6 32.9 26.7.6.2 1.2.2 1.8.1 5.9 1.2 11.3 1.5 16.6.9 11.3 9.1 25.9 27.1 23.5 39.6-1.1 5.7-5.6 9.8-13.5 12.1-8.5 2.6-19 1.3-26.9-3.2-4.8-2.8-7.4-6.3-7.9-10.4-1.1-9.3 8.7-20.2 14.6-25.8 1.4-1.4 1.3-3.2.5-4.4-.5-1.2-1.5-2-2.9-2.2-4.2-.5-8.4-1.5-12.7-3-.4-.1-.8-.2-1.2-.2-1.7 0-2.9 1.4-3.2 2.8-10.5 12.4-25.3 35.8-7.3 54.7 11.4 11.9 29 13.7 38.5 13.7 2.6 0 5.3-.1 8-.4 14.4-1.4 31.7-8.8 36.9-25.5 6.6-20.8-12-41.5-27.1-55.5zm21.3 49.2c-.4 13.8-14.6 21.6-27.6 24.3-3.7.8-7.6 1.2-11.5 1.2-10.3 0-20.3-2.7-28.3-7.6-5.6-3.5-9.7-8.7-11.5-14.8-3.6-12.3 5.2-24.8 13.5-34.4 1.8.6 3.7 1 5.5 1.4-8.9 9.3-18.6 22.9-8 37 5.4 7.1 15.4 11.2 27.5 11.2 2.7 0 5.4-.2 8-.6 11.3-1.7 22.8-9.8 23-23.7.2-17.2-17.5-33.5-28.1-41.7-.9-.7-1.9-.9-2.8-.6-.3 0-.6-.1-1 0-4.9.7-10 .3-15.7-1-.4-.1-.7-.1-1.1-.1-10.5-3.5-21-8.5-26.8-20.7-4.6-9.7-3.8-20.4 2.3-29.5 7.8-11.6 24-19.1 41.4-19.1 4.3 0 8.4.5 12.2 1.4.7.2 1.5.1 2.1-.1.5 0 1.1-.1 1.6-.3 2-.9 3.9-1.9 5.8-2.9-.2.6-.5 1.2-.7 1.7-.2.4-.3.8-.3 1.2-.3 1.4.1 2.8 1.3 3.6 10.1 7.9 15.5 19.1 15 31.7-.4 12.6-8.2 21.8-24.5 28.9-.8.3-1.3.9-1.6 1.5-1 1.4-.9 3 .4 4.2 10.7 9.7 30.5 27.6 29.9 47.8zm0 0"/>
    </symbol>

    <symbol id="Icon-instagram" viewBox="0 0 100 100">
        <path d="M93.396 10.206C93.286 9.056 92.493 7.99 91 8c-26.274.182-52.48-1.19-78.75-1.25-.1 0-.188.014-.28.023-.074-.007-.145-.023-.22-.023-1.363 0-2.5 1.137-2.5 2.5v3.5c0 .13.02.258.04.384-.033.192-.053.393-.04.616 1.384 23.256-1.162 51.487-.75 74.75.004.257.05.486.112.702.125 1.143.917 2.23 2.388 2.298 26.243 1.205 52.502.262 78.75-.25 1.274-.025 2.037-.826 2.304-1.777.28-.378.452-.868.446-1.473-.157-16.28.02-36.98.39-54.142.668-.877.69-2.204.072-3.115.154-6.72.336-13.343.538-19.743.01-.295-.036-.553-.104-.794zM36.73 12.128c1.755.038 3.51.07 5.266.11-.188 5.624.01 11.232.41 16.84-2.05-.068-4.096-.147-6.143-.23.216-5.572.264-11.148.467-16.72zm-10.982-.21c1.995.034 3.99.066 5.985.105-.203 5.532-.253 11.07-.463 16.6-2.003-.093-4.006-.203-6.01-.312.432-5.456.484-10.92.488-16.392zm-11.498.832v-.978c2.167.014 4.332.044 6.498.072-.003 5.4-.057 10.79-.468 16.176-1.878-.116-3.756-.227-5.634-.36-.002-.552.007-1.11 0-1.66.02-.204.018-.41-.008-.615-.046-3.92-.16-7.808-.39-11.636-.008-.154-.045-.287-.075-.425.047-.185.077-.377.077-.575zm73.24 73.547c-24.667.5-49.346 1.3-74.01.292-.18-16.443 1.012-36.922 1.164-53.93 24.374 1.722 48.804 2.054 73.23 2.083-.343 16.302-.51 36.135-.384 51.554zm.495-56.553c-13.526-.016-27.053-.134-40.57-.52-.402-5.618-.604-11.236-.42-16.87 13.81.327 27.62.66 41.445.65-.17 5.43-.32 11.04-.455 16.74zM64.905 25.607c.22 1.017.997 1.893 2.345 1.893h7.5c.613 0 1.108-.182 1.488-.475.89-.396 1.615-1.275 1.512-2.275-.23-2.245-.25-4.495-.25-6.75 0-.254-.04-.48-.098-.694C77.322 16.124 76.528 15 75 15h-7.25c-.92 0-1.567.412-1.962.993-.865.308-1.55 1.058-1.538 2.257.018 2.003.232 3.997.25 6 .005.548.162.995.405 1.357zM72.515 20c.012.834.033 1.667.074 2.5h-3.147c-.042-.833-.09-1.667-.13-2.5h3.202zM85.25 24.5v-7c0-3.224-5-3.224-5 0v7c0 3.224 5 3.224 5 0zM51.25 36.5c-.502-.05-.915.04-1.26.213-15.41-.594-27.542 14.3-24.65 29.702C27.59 78.405 39.61 84.837 50.966 84.3c10.62-.502 21.177-6.993 23.966-17.638 1.647-6.285-.217-13.078-3.332-18.576-4.217-7.446-12.205-10.77-20.35-11.586zm18.652 29.633c-2.066 7.885-10.554 12.29-18.098 13.103-8.338.897-16.424-2.595-20.294-10.21-6.72-13.22 6.33-29.76 20.575-27.114.484.09.92.04 1.31-.09 11.128 2.2 19.596 12.52 16.507 24.31zM50.944 45.63c-.402-.042-.758-.002-1.104.104-4.432-.084-8.615 1.916-11.535 5.436-3.004 3.62-4.236 8.304-3.383 12.853 1.012 5.385 6.13 11.18 14.983 11.18.27 0 .536-.007.803-.02 7.057-.333 13.1-4.822 14.698-10.92 1.233-4.708-.722-9.188-1.998-11.44-2.3-4.065-6.727-6.62-12.464-7.193zm8.765 17.58c-.974 3.716-5.105 5.775-8.768 6.17-.42.044-.843.067-1.258.067-3.767 0-6.952-1.843-8.52-4.93-1.31-2.572-1.1-5.61.57-8.332 1.78-2.906 4.782-4.712 7.83-4.712.474 0 .952.044 1.422.13.357.068.688.07 1.017.013 2.8.635 5.215 2.302 6.66 4.608 1.327 2.118 1.69 4.534 1.046 6.986zM52.762 53.59c-1.233-.58-2.687-.355-3.42.898-.642 1.096-.336 2.84.897 3.42.82.388 1.34.742 1.94 1.42.368.415.557 1.18.57 1.672.094 3.217 5.094 3.226 5 0-.094-3.246-2.07-6.035-4.988-7.41z"/>
    </symbol>

    <symbol id="Icon-journal" viewBox="250 250 100 100">
        <path d="M330.3 302.5c-.1 5.6.7 11.7.9 17.3.3 6.7-.5 13.5-6.7 17.4-6.2 3.9-13.7 4.6-20.8 5.1-8.7.6-17.4 0-25.9 1.1-3 .4-6.5-.1-8.1-2.6-1-1.7-.9-3.8-.7-5.7.8-11.3-.5-22.4-.6-33.7-.2-11.8-.3-23.6-.5-35.4 0-2.5-.1-5 .9-7.4.2-.6.6-1.2 1.1-1.5.6-.4 1.4-.4 2.1-.4 11.8.2 23.7.5 35.5.7 6.4.1 12.7.2 19.1.4.6 0 1.2 0 1.6.4 1 .9-.1 2.8.7 3.9M316 340.6c4-6.4 3.8-11.2 2.8-18 3.3-.4 9.6.8 12.4 2.7M332.8 269.3c1.4-1.5 2.5-4.1 5.1-3.2.9.3 1.6 1.2 2 2 1 1.7 2.2 3.2 3.3 4.8.8 1.1 2.8 2.9 2.7 4.3 0 1-.8 1.7-1.6 2.3-.8.5-1.7 1-2.2 1.8"/><path d="M339.1 277.4c1.6 2 4.5 4.5 3.8 6-1.7 1.8-2.1 1.9-3 2.8-4.1 4-8.5 7.7-12.8 11.5-1.5 1.3-2.9 2.5-4.4 3.8-2.9 2.5-5.7 4.9-8.6 7.4-.7.6-1.5 1.3-2.2 1.9-.5.4-1 .9-1.5 1.3-1.9 1.6-3.9 3.3-6.4 3.9-1.9.4-3.9.1-5.9-.3-1.4-.2-5.6-.2-6.2-1.7-.3-.7-.1-1.4 0-2.1.4-2.1.9-4.3 1.3-6.4.4-1.8.5-4.1 1.6-5.6.4-.5.8-.9 1.3-1.3 4.5-3.8 9-7.7 13.4-11.7 4.2-3.8 8.3-8 12.7-11.6 2.5-2 4.9-3.8 6.9-6.3.3-.4.6-.8 1-1 .8-.5 1.7-.1 2.3.6 2.5 2.5 4.5 5.9 6.7 8.8zM334.7 271.7c-5.1 2.9-9 7.4-13.2 11.4-4.4 4.3-9.8 7.4-14 11.7-1.1 1.1-2.5 2-3.3 3.4M337.8 275.5c-2 1-6 4.5-7.6 6.2-4.2 4.2-8.6 8.1-13.2 11.9-2.3 1.9-4.6 3.8-6.9 5.6-2.2 1.8-4.5 3.3-6.3 5.5M340 279.1c-1.4 1.4-2.8 2.9-4.2 4.3-4 4-8.4 7.5-12.9 10.9-4.4 3.3-8.1 7.3-12 11.1M295.1 299.8c-.3 1.3.7 2.4 1.4 3.5.9 1.4 1.7 2.8 2.6 4.2 1 1.5 2 3.1 3.1 4.6.7 1 2.3 2.8 3.6 3.1M292.7 307.6c1.3 2.9 3.3 5.2 5.3 7.7"/>
    </symbol>

    <symbol id="Icon-left" viewBox="0 0 128 128">
        <path d="M95.2 2.4L32.8 64l62.4 62.4"/>
    </symbol>

    <symbol id="Icon-logo" viewBox="0 0 128 128">
        <path d="M103.2 89.8c-2.4 1-4.9 1.8-7.5 2.6-1.3.4-2.7.7-4 1.1-1.2.4-3.1.7-4.5 1.1 0-2.1-.2-4.3-.7-6.2-.9-3.7-2.2-7.5-4.3-10.6-2-3.1-4.5-5.6-7.6-7.7-.1-.1-1-.7-1.1-.7 7.9-2.2 18.9-7.7 24-14.4 8.6-11.5 5.4-21.8-2-27.9-2.9-2.4-6.1-3.5-10.8-3.9-4.4-.4-12.7.7-16.9 2 .4-6.4.6-15.6.2-22.1 0-1.9-6.1-.3-6 1.3.4 7.2.2 16-.4 23-11.1 5.3-20.8 13.2-26.3 18.3-6.6 6.2-10.8 14.6-12.3 23.6-1.5 8.6-1 18.9 5.6 25.4 11 10.8 22.7-9 26.6-17.7.5-1.2.6-2.6 1.7-3.4.4-.2.7-.4 1.1-.5 6-1.2 10.5-.5 14.9 3.2 2.7 2.2 4.9 5.1 6.1 8.4.2.7.4 1.6.6 2.3.2 1 .7 2 1 2.9.5 2 .6 4 .5 6 0 .1-3.5.7-3.8.7-1.2.2-2.6.5-3.8.7-4.8 1-9.5 1.8-14.2 3.2-6.2 1.7-11.7 4.3-14.4 10.6-3.1 7.1 5.4 13 11.4 14.1 3.1.6 6.4.5 9.4.1 3.1-.4 6-1.3 8.3-3.2 5-3.9 11.2-13 12.6-21.3 5.6-1.2 9.8-2.3 14.8-4 .9-.4 1.5-1.1 1.6-2.1l.2-4.9zM53.8 67.3c-.1.2-1.3.2-1.5.2-1.1 0-2.4-.4-3.4.4-.6.5-.6 1.3-.7 2.1-.2 1.6-.9 2.9.9 3.2 0 0 2.1.4 2.2.4-2.4 5.3-5.2 10.4-8.3 15.2-1.6 2.4-3.3 4.8-5.5 5.5-2.1.6-4.8-.2-6.5-2.2-1.7-1.8-2.9-4.5-3.5-7.9-2.1-11.6 2.8-24.7 12.8-34.1 4.6-4.4 12.5-10.9 21.5-15.5-1.4 11.6-4.1 22.3-8 32.7zm15.3-2.9c-2.8.6-5.7 1.1-8.6 1.8.7-.1 2.1-6.4 2.3-7.1.9-2.9 1.7-6 2.3-9 1.3-6.1 2.3-11.6 3.1-17.8.2-2.6 7.9-2.4 9.7-2.2 6 .7 12.1 5.1 13.8 11 2.1 7-2.1 13.3-7.6 17.4-4.4 3.2-9.6 4.8-15 5.9zm1.6 55.5c-3.9 3.1-10 3.8-14.4 2.4-1.6-.5-3.1-1.2-4.4-2.2-1.2-.9-2.7-2.1-3.4-3.3-1.5-2.4 1.6-5.9 3.3-7.3 3.2-2.9 7.7-4.3 11.9-5.3 0 0 17-2.9 17.5-2.6-.4 4.2-4.9 13.9-10.5 18.3z"/>
    </symbol>

    <symbol id="Icon-pinterest" viewBox="0 0 100 100">
        <path d="M40.148 5.09C25.706 11.337 18.276 26.323 21.86 41.586c.238 1.015.872 1.59 1.62 1.824 1.52.987 4.255.255 4.45-2.184.66-8.257 3.784-15.984 11.438-19.934 5.708-2.945 12.774-2.436 18.658-.386 4.618 1.61 10.084 5.375 10.546 10.69.238 2.74-1.142 5.285-2.83 7.335-4.197 5.092-9.87 6.59-15.785 5.825 1.866-2.9 3.477-6.428 1.807-9.68-1.874-3.648-7.146-3.218-10.65-2.736-.743-.135-1.543.062-2.23.793-10.87 11.582-16.8 26.782-19.703 42.254-.982.315-1.778 1.14-1.77 2.483.026 5.826.393 11.63 1.087 17.416.216 1.797 1.804 2.657 3.214 2.58h.02c.163-.01.32-.032.477-.067l.06-.016c.13-.033.257-.073.38-.124.065-.026.128-.057.192-.09.053-.027.106-.055.157-.087.52-.3.96-.774 1.208-1.473 4.583-12.844 10.3-25.214 15.86-37.653 13.66 3.715 30.125 4.88 39.807-7.183 8.495-10.585 6.313-26.177-1.92-36.224C68.955 3.97 53.44-.66 40.15 5.09zm35.046 43.268c-8.477 10.562-24.973 7.407-36.2 4.03-1.983-.595-3.284.98-3.344 2.582-4.176 9.358-8.445 18.678-12.306 28.167.06-.17.106-.35.134-.55 2.274-16.162 7.502-32.664 18.66-44.934 1.32-.177 2.654-.24 3.982-.12.14.012.853.278.874.267.025.015.052.03.07.045-.004.056-.014.155-.02.36 0-.056-.265.932-.378 1.246-.516 1.442-1.53 2.79-2.4 4.03-.018.026-.026.05-.042.076-2.647.083-3.507 4.42-.508 5.374 11.723 3.724 27.343-.66 30.067-14.224C75.366 26.82 69.32 20.36 62.79 17.063c-7.51-3.794-16.978-4.437-24.758-1.103-3.94 1.688-7.008 4.23-9.35 7.316 2.515-5.458 6.978-10.015 12.937-12.933 11.427-5.6 25.446-.856 32.824 8.92 6.398 8.477 7.607 20.55.75 29.095z"/>
    </symbol>

    <symbol id="Icon-right" viewBox="0 0 128 128">
        <path d="M32.8 2.4L95.2 64l-62.4 62.4"/>
    </symbol>

    <symbol id="Icon-twitter" viewBox="0 0 100 100">
        <path d="M95.466 31.725c-1.645-.814-3.3-1.61-4.92-2.466 1.22-1.947 2.3-3.973 3.264-6.066.546-1.187.348-2.573-.86-3.28-.815-.478-2.016-.402-2.767.215-2.746.855-5.41 1.933-8.034 3.1-.677-.954-1.457-1.864-2.367-2.71C67.438 9.037 47.37 19.573 41.94 32.087c-10.636-.475-19.61-5.89-26.964-12.538-.316-.287-.658-.458-1.005-.553-1.26-.57-2.946-.293-3.274 1.29-1.484 7.16.54 13.912 5.6 19.137-1.01-.032-2.02-.073-3.03-.137-.437-.028-.806.04-1.12.17-1.647-.336-3.623.762-2.9 2.574 1.976 4.954 5.483 8.79 10.12 11.15-.5.004-1 0-1.508-.02-.31-.013-.582.03-.83.098-1.51.245-2.794 1.662-1.74 3.162 3.275 4.654 7.795 8.1 13.298 10.26-3.237 3.237-7.825 4.403-12.902 4.035-.2-.014-.384-.01-.558.012-.38.005-.77.087-1.145.284-1.07.563-1.618 1.994-.866 2.966.097.125.204.24.304.36-2.076-.207-4.142-.512-6.21-.932-2.242-1.108-5.03 1.64-2.897 3.395 4.18 3.438 8.878 5.997 14.115 7.926.506.186.957.204 1.35.112 29.075 7.1 55.196-13.15 63.63-37.23.78-2.23 1.4-4.635 1.787-7.093 3.558-1.212 7.052-2.594 10.54-3.99 2.476-.99 1.847-4.653-.266-4.8zM77.11 50.61c-8.942 20.494-32.342 36.552-57.4 29.718-.282-.077-.542-.097-.79-.092-1.07-.417-2.113-.872-3.13-1.365 2.047.12 4.105.147 6.175.08 2.814-.09 3.08-3.646.788-4.242-.057-.03-.107-.067-.167-.092 4.873-1.027 9.074-3.624 11.856-7.793.858-1.286.058-2.5-1.112-2.99-.226-.17-.49-.312-.816-.41-4.072-1.23-7.574-3.273-10.376-6.037 2.854-.234 5.662-.77 8.444-1.487 2.804-.722 1.86-4.446-.745-4.27-.257-.104-.54-.18-.864-.205-5.956-.437-10.76-3.283-13.594-7.697 2.434.098 4.87.11 7.31.11 2.768 0 3.072-3.41.924-4.176-5.2-3.633-8.383-8.512-8.606-14.124 7.907 6.28 17.366 10.862 28.22 10.932.64.004 1.14-.18 1.518-.47.575-.22 1.062-.65 1.295-1.338 2.874-8.447 12.545-15.838 22.817-14.344 4.042.588 7.42 2.506 9.537 5.655 4.86 7.233 1.877 17.393-1.285 24.638zm7.838-21.11c-.17-.683-.365-1.36-.605-2.022.752-.333 1.51-.653 2.27-.965-.404.654-.822 1.3-1.26 1.934-.25.36-.37.714-.405 1.054zm.652 5.8c-.007-1.218-.08-2.43-.252-3.623.167.194.365.377.625.53 1.06.626 2.146 1.2 3.242 1.757-1.2.46-2.405.903-3.615 1.335zM63.25 27.5c-3.225 0-3.225 5 0 5s3.225-5 0-5z"/>
    </symbol>
</svg>