<?xml version="1.0" encoding="utf-8"?>
<!DOCTYPE svg PUBLIC "-//W3C//DTD SVG 1.1//EN" "http://www.w3.org/Graphics/SVG/1.1/DTD/svg11.dtd">
<svg version="1.1" id="Capa_1" xmlns="http://www.w3.org/2000/svg" xmlns:xlink="http://www.w3.org/1999/xlink" x="0px" y="0px"
	viewBox="0 0 100 100" enable-background="new 0 0 100 100" xml:space="preserve">
<g>
	<path d="M93.396,10.206C93.285,9.056,92.493,7.99,91,8C64.726,8.182,38.52,6.811,12.25,6.75
		c-0.099,0-0.188,0.014-0.28,0.023c-0.074-0.007-0.145-0.023-0.22-0.023c-1.363,0-2.5,1.137-2.5,2.5v3.5
		c0,0.131,0.02,0.258,0.04,0.384c-0.033,0.192-0.053,0.393-0.04,0.616C10.634,37.006,8.088,65.237,8.5,88.5
		c0.004,0.257,0.05,0.486,0.112,0.702C8.737,90.345,9.529,91.432,11,91.5c26.243,1.205,52.502,0.262,78.75-0.25
		c1.274-0.025,2.037-0.826,2.304-1.777c0.281-0.378,0.452-0.868,0.446-1.473c-0.157-16.281,0.021-36.98,0.391-54.142
		c0.667-0.877,0.69-2.204,0.071-3.115C93.116,24.023,93.298,17.4,93.5,11C93.509,10.705,93.464,10.447,93.396,10.206z M36.73,12.128
		c1.755,0.038,3.511,0.07,5.266,0.11c-0.188,5.624,0.011,11.232,0.409,16.841c-2.048-0.069-4.095-0.148-6.142-0.231
		C36.479,23.276,36.527,17.7,36.73,12.128z M25.748,11.918c1.995,0.034,3.99,0.066,5.985,0.105
		c-0.203,5.532-0.253,11.069-0.463,16.601c-2.003-0.094-4.006-0.204-6.009-0.313C25.692,22.854,25.744,17.389,25.748,11.918z
		 M14.25,12.75v-0.978c2.167,0.014,4.332,0.044,6.498,0.072c-0.003,5.399-0.057,10.791-0.468,16.176
		c-1.878-0.116-3.756-0.227-5.634-0.36c-0.002-0.552,0.007-1.109,0.001-1.659c0.018-0.205,0.017-0.411-0.009-0.616
		c-0.046-3.921-0.161-7.808-0.389-11.636c-0.009-0.153-0.046-0.286-0.076-0.424C14.22,13.14,14.25,12.948,14.25,12.75z
		 M87.49,86.297c-24.667,0.501-49.346,1.3-74.009,0.292c-0.181-16.442,1.011-36.921,1.163-53.93
		c24.374,1.723,48.804,2.055,73.231,2.084C87.531,51.045,87.363,70.878,87.49,86.297z M87.985,29.744
		c-13.526-0.016-27.053-0.134-40.57-0.519c-0.402-5.619-0.604-11.237-0.421-16.87c13.811,0.326,27.62,0.659,41.446,0.648
		C88.271,18.435,88.119,24.045,87.985,29.744z"/>
	<path d="M64.905,25.607c0.221,1.017,0.997,1.893,2.345,1.893h7.5c0.613,0,1.108-0.182,1.488-0.475
		c0.891-0.396,1.615-1.275,1.512-2.275c-0.231-2.245-0.25-4.495-0.25-6.75c0-0.254-0.041-0.48-0.098-0.694
		C77.323,16.124,76.528,15,75,15h-7.25c-0.919,0-1.567,0.412-1.962,0.993c-0.865,0.308-1.549,1.058-1.538,2.257
		c0.018,2.003,0.232,3.997,0.25,6C64.505,24.798,64.662,25.245,64.905,25.607z M72.515,20c0.012,0.834,0.033,1.667,0.074,2.5h-3.146
		c-0.042-0.833-0.09-1.667-0.131-2.5H72.515z"/>
	<path d="M85.25,24.5v-7c0-3.224-5-3.224-5,0v7C80.25,27.724,85.25,27.724,85.25,24.5z"/>
	<path d="M51.25,36.5c-0.502-0.05-0.915,0.041-1.259,0.213c-15.411-0.594-27.543,14.299-24.652,29.702
		C27.59,78.404,39.612,84.837,50.967,84.3c10.619-0.502,21.177-6.993,23.966-17.638c1.647-6.285-0.217-13.078-3.332-18.576
		C67.383,40.64,59.395,37.315,51.25,36.5z M69.902,66.133c-2.066,7.885-10.554,12.291-18.098,13.103
		c-8.338,0.897-16.424-2.595-20.294-10.209c-6.72-13.22,6.329-29.76,20.575-27.115c0.484,0.09,0.92,0.041,1.309-0.09
		C64.523,44.021,72.991,54.343,69.902,66.133z"/>
	<path d="M50.944,45.63c-0.402-0.042-0.758-0.002-1.104,0.104c-4.432-0.084-8.615,1.916-11.535,5.436
		c-3.004,3.619-4.236,8.304-3.383,12.853c1.012,5.385,6.131,11.179,14.983,11.18h0.001c0.268,0,0.535-0.007,0.802-0.02
		c7.057-0.333,13.101-4.822,14.698-10.919c1.233-4.709-0.722-9.189-1.998-11.441C61.107,48.758,56.681,46.204,50.944,45.63z
		 M59.709,63.21c-0.973,3.716-5.104,5.775-8.767,6.169c-0.419,0.045-0.843,0.068-1.258,0.068c-3.767,0-6.952-1.843-8.521-4.93
		c-1.308-2.572-1.1-5.609,0.57-8.332c1.782-2.906,4.783-4.712,7.831-4.712c0.474,0,0.952,0.044,1.422,0.131
		c0.357,0.067,0.688,0.068,1.017,0.012c2.801,0.635,5.215,2.302,6.66,4.608C59.99,58.342,60.352,60.758,59.709,63.21z"/>
	<path d="M52.762,53.591c-1.233-0.58-2.687-0.356-3.42,0.897c-0.642,1.096-0.336,2.84,0.897,3.421
		c0.822,0.387,1.342,0.741,1.942,1.419c0.367,0.415,0.556,1.179,0.57,1.672c0.093,3.217,5.093,3.226,5,0
		C57.656,57.754,55.681,54.965,52.762,53.591z"/>
</g>
</svg>
