<?xml version="1.0" encoding="utf-8"?>
<!DOCTYPE svg PUBLIC "-//W3C//DTD SVG 1.1//EN" "http://www.w3.org/Graphics/SVG/1.1/DTD/svg11.dtd">
<svg version="1.1" id="Layer_1" xmlns="http://www.w3.org/2000/svg" xmlns:xlink="http://www.w3.org/1999/xlink" x="0px" y="0px"
	 viewBox="250 250 100 100" enable-background="new 250 250 100 100" xml:space="preserve">
<path d="M309.4,290.3c-0.1-1-0.7-1.8-2-1.7
	c-5.1,0.5-10.2,0.7-15.3,1.3c-1-0.2-2.1,0.1-2.5,1.4c-0.8,3.3-1.7,6.7-2.3,10.1c-0.1,0.7,0.1,1.3,0.4,1.7c0.2,0.8,0.9,1.6,1.9,1.7
	c2,0.2,3.9,0.3,5.9,0.4c-0.3,9.6-0.7,19.2-0.9,28.8c-0.3,1.2,0.4,2.7,2,2.6c3-0.1,6-0.1,8.9,0c0.5,0,1-0.1,1.3-0.4
	c0.7-0.3,1.3-0.9,1.3-1.9c-0.2-14.4,1.2-28.8,1.4-43.3C309.5,290.7,309.5,290.5,309.4,290.3z"/>
<path d="M300.7,264.2c-0.2,0-0.4,0-0.5,0
	c-0.3-0.1-0.5-0.2-0.8-0.2l-0.1,0c-3,0.2-6,1.7-7.9,4.1c-1.7,2.1-2.5,4.8-2.1,7.4c0.7,4.7,5.1,8.2,10.2,8.2c0.8,0,1.6-0.1,2.4-0.3
	c3.9-1,7.1-4.8,7.6-9.4C310.1,268.7,305.6,265.1,300.7,264.2z"/>
<path d="M300.3,254.7c-8.8,0-17.3,2.2-24.6,6.4
	c-6.5,3.7-12.9,11.7-16.5,18c-6.7,11.9-6.5,28.5,0.5,42.3c3.6,7,9.1,12.7,15.9,16.4c6.3,3.4,16.4,7.4,24.3,7.4
	c24.4,0,44.4-19.4,45.6-44.3c0-0.4,0-0.9,0-1.3c0.1-8-3.5-17.2-4.6-19.8C334.5,264.4,318.8,254.7,300.3,254.7z"/>
</svg>
