<?xml version="1.0" encoding="utf-8"?>
<!-- Generator: Adobe Illustrator 17.0.2, SVG Export Plug-In . SVG Version: 6.00 Build 0)  -->
<!DOCTYPE svg PUBLIC "-//W3C//DTD SVG 1.1//EN" "http://www.w3.org/Graphics/SVG/1.1/DTD/svg11.dtd">
<svg version="1.1" id="Capa_1" xmlns="http://www.w3.org/2000/svg" xmlns:xlink="http://www.w3.org/1999/xlink" x="0px" y="0px"
	viewBox="0 0 100 100" enable-background="new 0 0 100 100" xml:space="preserve">
<g>
	<path d="M95.466,31.725c-1.645-0.814-3.299-1.609-4.921-2.466c1.222-1.946,2.301-3.972,3.265-6.065
		c0.546-1.187,0.348-2.573-0.86-3.281c-0.815-0.477-2.016-0.401-2.767,0.216c-2.746,0.856-5.409,1.934-8.034,3.102
		c-0.676-0.955-1.456-1.865-2.366-2.711C67.438,9.037,47.371,19.573,41.939,32.087c-10.635-0.475-19.61-5.889-26.963-12.538
		c-0.316-0.286-0.658-0.457-1.005-0.552c-1.261-0.57-2.947-0.293-3.275,1.291c-1.484,7.16,0.541,13.911,5.6,19.136
		c-1.01-0.032-2.02-0.073-3.029-0.137c-0.438-0.028-0.807,0.041-1.122,0.169c-1.646-0.335-3.622,0.763-2.899,2.575
		c1.976,4.953,5.483,8.789,10.121,11.148c-0.5,0.005-1.002,0-1.509-0.02c-0.311-0.012-0.582,0.031-0.831,0.099
		c-1.508,0.245-2.793,1.662-1.738,3.162c3.274,4.654,7.794,8.099,13.297,10.26c-3.237,3.237-7.825,4.403-12.902,4.035
		c-0.199-0.014-0.384-0.009-0.558,0.012c-0.381,0.005-0.77,0.087-1.145,0.284c-1.07,0.562-1.619,1.993-0.867,2.965
		c0.097,0.125,0.204,0.239,0.304,0.359c-2.076-0.206-4.142-0.511-6.209-0.931c-2.243-1.108-5.031,1.64-2.898,3.395
		c4.179,3.439,8.877,5.998,14.114,7.927c0.506,0.186,0.957,0.204,1.349,0.112c29.076,7.101,55.197-13.149,63.63-37.23
		c0.781-2.231,1.402-4.635,1.788-7.093c3.558-1.212,7.052-2.594,10.541-3.989C98.208,35.535,97.579,31.872,95.466,31.725z
		 M77.109,50.611c-8.941,20.493-32.341,36.551-57.4,29.717c-0.281-0.077-0.541-0.097-0.79-0.092
		c-1.068-0.417-2.112-0.872-3.13-1.365c2.048,0.118,4.106,0.146,6.176,0.079c2.814-0.091,3.079-3.646,0.788-4.242
		c-0.057-0.031-0.107-0.067-0.167-0.092c4.873-1.027,9.074-3.624,11.856-7.793c0.858-1.286,0.058-2.499-1.112-2.991
		c-0.226-0.168-0.491-0.311-0.816-0.409c-4.072-1.231-7.574-3.273-10.376-6.037c2.854-0.234,5.662-0.771,8.444-1.487
		c2.804-0.721,1.859-4.445-0.745-4.268c-0.257-0.105-0.54-0.182-0.864-0.206c-5.956-0.437-10.761-3.283-13.594-7.697
		c2.435,0.098,4.872,0.11,7.312,0.111c2.767,0,3.071-3.411,0.923-4.177c-5.2-3.633-8.383-8.512-8.606-14.124
		c7.907,6.28,17.366,10.862,28.22,10.932c0.64,0.004,1.141-0.181,1.518-0.469c0.575-0.22,1.062-0.651,1.295-1.339
		c2.873-8.447,12.544-15.838,22.816-14.344c4.042,0.588,7.421,2.506,9.537,5.655C83.255,33.206,80.271,43.366,77.109,50.611z
		 M84.948,29.501c-0.169-0.684-0.365-1.361-0.605-2.023c0.752-0.333,1.509-0.653,2.269-0.965c-0.403,0.654-0.821,1.299-1.259,1.934
		C85.104,28.807,84.984,29.161,84.948,29.501z M85.6,35.299c-0.007-1.217-0.079-2.429-0.252-3.622
		c0.167,0.194,0.365,0.377,0.625,0.53c1.06,0.626,2.146,1.2,3.242,1.757C88.015,34.424,86.81,34.867,85.6,35.299z"/>
	<path d="M63.25,27.5c-3.225,0-3.225,5,0,5S66.475,27.5,63.25,27.5z"/>
</g>
</svg>
