<?xml version="1.0" encoding="utf-8"?>
<!DOCTYPE svg PUBLIC "-//W3C//DTD SVG 1.1//EN" "http://www.w3.org/Graphics/SVG/1.1/DTD/svg11.dtd">
<svg version="1.1" id="Layer_1" xmlns="http://www.w3.org/2000/svg" xmlns:xlink="http://www.w3.org/1999/xlink" x="0px" y="0px"
	 viewBox="250 250 100 100" enable-background="new 250 250 100 100" xml:space="preserve">
<path d="M330.3,302.5c-0.1,5.6,0.7,11.7,0.9,17.3
	c0.3,6.7-0.5,13.5-6.7,17.4c-6.2,3.9-13.7,4.6-20.8,5.1c-8.7,0.6-17.4,0-25.9,1.1c-3,0.4-6.5-0.1-8.1-2.6c-1-1.7-0.9-3.8-0.7-5.7
	c0.8-11.3-0.5-22.4-0.6-33.7c-0.2-11.8-0.3-23.6-0.5-35.4c0-2.5-0.1-5,0.9-7.4c0.2-0.6,0.6-1.2,1.1-1.5c0.6-0.4,1.4-0.4,2.1-0.4
	c11.8,0.2,23.7,0.5,35.5,0.7c6.4,0.1,12.7,0.2,19.1,0.4c0.6,0,1.2,0,1.6,0.4c1,0.9-0.1,2.8,0.7,3.9"/>
<path d="M316,340.6c4-6.4,3.8-11.2,2.8-18
	c3.3-0.4,9.6,0.8,12.4,2.7"/>
<path d="M332.8,269.3c1.4-1.5,2.5-4.1,5.1-3.2
	c0.9,0.3,1.6,1.2,2,2c1,1.7,2.2,3.2,3.3,4.8c0.8,1.1,2.8,2.9,2.7,4.3c0,1-0.8,1.7-1.6,2.3c-0.8,0.5-1.7,1-2.2,1.8"/>
<path d="M339.1,277.4c1.6,2,4.5,4.5,3.8,6
	c-1.7,1.8-2.1,1.9-3,2.8c-4.1,4-8.5,7.7-12.8,11.5c-1.5,1.3-2.9,2.5-4.4,3.8c-2.9,2.5-5.7,4.9-8.6,7.4c-0.7,0.6-1.5,1.3-2.2,1.9
	c-0.5,0.4-1,0.9-1.5,1.3c-1.9,1.6-3.9,3.3-6.4,3.9c-1.9,0.4-3.9,0.1-5.9-0.3c-1.4-0.2-5.6-0.2-6.2-1.7c-0.3-0.7-0.1-1.4,0-2.1
	c0.4-2.1,0.9-4.3,1.3-6.4c0.4-1.8,0.5-4.1,1.6-5.6c0.4-0.5,0.8-0.9,1.3-1.3c4.5-3.8,9-7.7,13.4-11.7c4.2-3.8,8.3-8,12.7-11.6
	c2.5-2,4.9-3.8,6.9-6.3c0.3-0.4,0.6-0.8,1-1c0.8-0.5,1.7-0.1,2.3,0.6C334.9,271.1,336.9,274.5,339.1,277.4z"/>
<path d="M334.7,271.7c-5.1,2.9-9,7.4-13.2,11.4
	c-4.4,4.3-9.8,7.4-14,11.7c-1.1,1.1-2.5,2-3.3,3.4"/>
<path d="M337.8,275.5c-2,1-6,4.5-7.6,6.2
	c-4.2,4.2-8.6,8.1-13.2,11.9c-2.3,1.9-4.6,3.8-6.9,5.6c-2.2,1.8-4.5,3.3-6.3,5.5"/>
<path d="M340,279.1c-1.4,1.4-2.8,2.9-4.2,4.3
	c-4,4-8.4,7.5-12.9,10.9c-4.4,3.3-8.1,7.3-12,11.1"/>
<path d="M295.1,299.8c-0.3,1.3,0.7,2.4,1.4,3.5
	c0.9,1.4,1.7,2.8,2.6,4.2c1,1.5,2,3.1,3.1,4.6c0.7,1,2.3,2.8,3.6,3.1"/>
<path d="M292.7,307.6c1.3,2.9,3.3,5.2,5.3,7.7"/>
</svg>
