<?xml version="1.0" encoding="utf-8"?>
<!DOCTYPE svg PUBLIC "-//W3C//DTD SVG 1.1//EN" "http://www.w3.org/Graphics/SVG/1.1/DTD/svg11.dtd">
<svg version="1.1" id="Capa_1" xmlns="http://www.w3.org/2000/svg" xmlns:xlink="http://www.w3.org/1999/xlink" x="0px" y="0px"
	viewBox="0 0 100 100" enable-background="new 0 0 100 100" xml:space="preserve">
<g>
	<path d="M40.148,5.09C25.706,11.337,18.276,26.323,21.86,41.586c0.238,1.015,0.872,1.591,1.619,1.824
		c1.52,0.987,4.256,0.255,4.451-2.184c0.661-8.257,3.784-15.984,11.438-19.934c5.708-2.945,12.774-2.436,18.658-0.386
		c4.618,1.609,10.084,5.375,10.546,10.69c0.238,2.741-1.142,5.285-2.831,7.335c-4.196,5.091-9.868,6.59-15.784,5.824
		c1.866-2.9,3.477-6.428,1.807-9.68c-1.874-3.648-7.146-3.218-10.651-2.736c-0.742-0.134-1.542,0.063-2.228,0.794
		C28.013,44.715,22.083,59.915,19.181,75.387c-0.983,0.315-1.779,1.139-1.772,2.483c0.027,5.826,0.394,11.631,1.088,17.416
		c0.216,1.797,1.804,2.657,3.214,2.581c0.006,0,0.013-0.001,0.019-0.001c0.163-0.01,0.321-0.032,0.477-0.067
		c0.02-0.004,0.039-0.01,0.059-0.015c0.132-0.033,0.258-0.073,0.381-0.124c0.065-0.026,0.128-0.057,0.192-0.089
		c0.054-0.028,0.107-0.056,0.158-0.088c0.519-0.3,0.959-0.774,1.208-1.473c4.583-12.844,10.301-25.214,15.859-37.653
		c13.662,3.715,30.126,4.881,39.808-7.183c8.495-10.585,6.313-26.177-1.919-36.224C68.954,3.97,53.44-0.66,40.148,5.09z
		 M75.194,48.358c-8.477,10.562-24.973,7.407-36.2,4.031c-1.983-0.596-3.284,0.979-3.344,2.581
		c-4.176,9.358-8.445,18.678-12.306,28.167c0.059-0.169,0.106-0.35,0.134-0.551c2.274-16.161,7.502-32.663,18.661-44.933
		c1.32-0.177,2.653-0.239,3.981-0.121c0.141,0.013,0.853,0.279,0.874,0.268c0.025,0.015,0.052,0.03,0.071,0.045
		C47.06,37.901,47.05,38,47.043,38.204c0.002-0.055-0.264,0.933-0.377,1.247c-0.516,1.441-1.529,2.79-2.4,4.03
		c-0.018,0.025-0.026,0.05-0.042,0.075c-2.647,0.083-3.507,4.421-0.508,5.374c11.723,3.724,27.343-0.659,30.067-14.224
		c1.583-7.887-4.462-14.345-10.992-17.643c-7.511-3.794-16.979-4.437-24.759-1.103c-3.939,1.688-7.008,4.231-9.351,7.316
		c2.516-5.458,6.979-10.015,12.938-12.933c11.428-5.599,25.447-0.856,32.825,8.92C80.842,27.74,82.051,39.813,75.194,48.358z"/>
</g>
</svg>
