<?xml version="1.0" encoding="utf-8"?>
<!DOCTYPE svg PUBLIC "-//W3C//DTD SVG 1.1//EN" "http://www.w3.org/Graphics/SVG/1.1/DTD/svg11.dtd">
<svg version="1.1" xmlns="http://www.w3.org/2000/svg" xmlns:xlink="http://www.w3.org/1999/xlink" x="0px" y="0px"
	 viewBox="0 0 100 100" enable-background="new 0 0 100 100" xml:space="preserve">
	<path d="M10.8,29.4c-0.9,0.1-1.6,0.3-1.9,0.8
		c-0.2,0.4-0.2,0.9-0.3,1.3c-0.1,6.8-0.5,13.5-1,20.2C7.3,57.8,6.9,63.9,6.6,70c-0.1,2.7-0.2,5.3,0,8c0.1,1.9-0.2,4.5,0.5,6.3
		c1.1,2.9,6.5,2.5,9,2.8c8.6,0.9,17.3,1.2,26,1.5c7.6,0.2,15.2,0.7,22.8,0.3c5-0.2,10-0.9,14.9-1.7c3.8-0.6,9.5-0.3,12.2-3.6
		c2.6-3.2,1.2-8.1,0.9-11.9c-0.3-5.2-0.6-10.3-0.8-15.5c-0.1-2.4-0.3-4.7-0.4-7.1c-0.3-5.7-0.2-13.4-1.6-17.1
		c-1.2-3.2-11.8-1.5-17.7-1.5c-3,0-6,0.8-9,0.9c-3.4,0.1-6.9-0.1-10.3-0.1c-7.7-0.1-15.3-0.2-23-0.2c-3.6,0-7.3-0.3-10.9-0.7
		C18,30.2,13.5,29.2,10.8,29.4z"/>
	<path d="M15.6,73c0.1,2.3-0.6,6.4,2,7.5
		c1.1,0.5,2.4,0.4,3.6,0.3c6.5-0.4,12.7,0.6,19.1,1.3c6.6,0.6,13.4,0.7,20,0.3c3.8-0.2,7.5-1,11.2-1.7c3-0.5,7.5,0.3,10.2-1.4
		c2.8-1.7,1.9-6.8,2-9.8c0.3-6.1-0.3-12.5-0.7-18.6c-0.2-2.7-0.3-5.4-0.7-8.1c-0.1-0.8-0.1-2.4-0.8-3c-1.2-0.9-5.4-0.7-6.9-0.6
		c-6.9,0.2-13.9-1.3-20.8-1.1c-5.9,0.2-11.7-0.1-17.5,0c-5.8,0-11.6,0.1-17.4,0c-0.5,0-0.9,0-1.3,0.2c-2,1.1-1.3,8.8-1.3,10.8
		c0,2.7,0.1,5.5-0.1,8.2C15.9,62.7,15.4,67.8,15.6,73z"/>
	<path d="M22.7,30.7c4.6-1.7,7.1-5,10.3-8.6
		c3.2-3.7,7-7.1,11-9.9c1.8-1.3,3.6-1.2,5.9-0.9c3.9,0.5,6.7,4.9,9.7,7.4c5.1,4.2,7.9,7.2,12.5,11.8"/>
	<path d="M28.9,46.5c-2.2,2-2.1,6.9,0.3,8.3
		c3,1.8,6.8-0.3,7.2-3.7c0.2-2-0.8-4.1-2.6-5c-1.2-0.6-2.6-0.7-3.9-0.3C29.5,46,29.2,46.2,28.9,46.5z"/>
	<path d="M53,61.5c0.1,0.3,0.3,0.6,0.5,0.9
		c0.8,1.4,1.7,2.7,2.5,4.1c1,1.8,3.5,6.6-0.1,7.2c-6.1,1-14,0.3-20.1-0.3c-0.6-0.1,4.1-6.1,4.4-6.6c1.3-2.2,2.6-3.4,4-5.6
		c1.1-1.7,3.5-7.1,6.4-4.3C51.8,58.1,52.3,59.9,53,61.5z"/>
	<path d="M56.4,66.7c1.5-0.3,3-2.2,4.2-3
		c1.8-1.2,4.1-4.3,6.6-3.3c2.6,1.1,5.4,5.5,7.2,7.6c0.8,1,1.7,2.3,1.3,3.5c-0.3,0.8-1,1.4-1.9,1.6c-0.8,0.2-1.7,0.2-2.6,0.2
		c-4.3-0.1-9.1,0.3-13.3-0.6"/>
</svg>
