<?xml version="1.0" encoding="utf-8"?>
<!-- Generator: Adobe Illustrator 18.1.0, SVG Export Plug-In . SVG Version: 6.00 Build 0)  -->
<svg version="1.1" id="Capa_1" xmlns="http://www.w3.org/2000/svg" xmlns:xlink="http://www.w3.org/1999/xlink" x="0px" y="0px"
	 viewBox="0 0 128 128" enable-background="new 0 0 128 128" xml:space="preserve">
<path d="M103.2,89.8c-2.4,1-4.9,1.8-7.5,2.6c-1.3,0.4-2.7,0.7-4,1.1c-1.2,0.4-3.1,0.7-4.5,1.1c0-2.1-0.2-4.3-0.7-6.2
	c-0.9-3.7-2.2-7.5-4.3-10.6c-2-3.1-4.5-5.6-7.6-7.7c-0.1-0.1-1-0.7-1.1-0.7c7.9-2.2,18.9-7.7,24-14.4c8.6-11.5,5.4-21.8-2-27.9
	c-2.9-2.4-6.1-3.5-10.8-3.9c-4.4-0.4-12.7,0.7-16.9,2c0.4-6.4,0.6-15.6,0.2-22.1C68,1.2,61.9,2.8,62,4.4c0.4,7.2,0.2,16-0.4,23
	c-11.1,5.3-20.8,13.2-26.3,18.3C28.7,51.9,24.5,60.3,23,69.3c-1.5,8.6-1,18.9,5.6,25.4c11,10.8,22.7-9,26.6-17.7
	c0.5-1.2,0.6-2.6,1.7-3.4c0.4-0.2,0.7-0.4,1.1-0.5c6-1.2,10.5-0.5,14.9,3.2c2.7,2.2,4.9,5.1,6.1,8.4c0.2,0.7,0.4,1.6,0.6,2.3
	c0.2,1,0.7,2,1,2.9c0.5,2,0.6,4,0.5,6c0,0.1-3.5,0.7-3.8,0.7c-1.2,0.2-2.6,0.5-3.8,0.7c-4.8,1-9.5,1.8-14.2,3.2
	c-6.2,1.7-11.7,4.3-14.4,10.6c-3.1,7.1,5.4,13,11.4,14.1c3.1,0.6,6.4,0.5,9.4,0.1c3.1-0.4,6-1.3,8.3-3.2c5-3.9,11.2-13,12.6-21.3
	c5.6-1.2,9.8-2.3,14.8-4c0.9-0.4,1.5-1.1,1.6-2.1L103.2,89.8z M53.8,67.3c-0.1,0.2-1.3,0.2-1.5,0.2c-1.1,0-2.4-0.4-3.4,0.4
	c-0.6,0.5-0.6,1.3-0.7,2.1c-0.2,1.6-0.9,2.9,0.9,3.2c0,0,2.1,0.4,2.2,0.4C48.9,78.9,46.1,84,43,88.8c-1.6,2.4-3.3,4.8-5.5,5.5
	c-2.1,0.6-4.8-0.2-6.5-2.2c-1.7-1.8-2.9-4.5-3.5-7.9c-2.1-11.6,2.8-24.7,12.8-34.1c4.6-4.4,12.5-10.9,21.5-15.5
	C60.4,46.2,57.7,56.9,53.8,67.3z M69.1,64.4c-2.8,0.6-5.7,1.1-8.6,1.8c0.7-0.1,2.1-6.4,2.3-7.1c0.9-2.9,1.7-6,2.3-9
	c1.3-6.1,2.3-11.6,3.1-17.8c0.2-2.6,7.9-2.4,9.7-2.2c6,0.7,12.1,5.1,13.8,11c2.1,7-2.1,13.3-7.6,17.4C79.7,61.7,74.5,63.3,69.1,64.4
	z M70.7,119.9c-3.9,3.1-10,3.8-14.4,2.4c-1.6-0.5-3.1-1.2-4.4-2.2c-1.2-0.9-2.7-2.1-3.4-3.3c-1.5-2.4,1.6-5.9,3.3-7.3
	c3.2-2.9,7.7-4.3,11.9-5.3c0,0,17-2.9,17.5-2.6C80.8,105.8,76.3,115.5,70.7,119.9z"/>
</svg>
