<?xml version="1.0" encoding="utf-8"?>
<!DOCTYPE svg PUBLIC "-//W3C//DTD SVG 1.1//EN" "http://www.w3.org/Graphics/SVG/1.1/DTD/svg11.dtd">
<svg version="1.1" xmlns="http://www.w3.org/2000/svg" xmlns:xlink="http://www.w3.org/1999/xlink" x="0px" y="0px"
	 viewBox="0 0 100 100" enable-background="new 0 0 100 100" xml:space="preserve">
	<path stroke-miterlimit="10" d="M22.9,7.7c-1.6,1.9-1,8.9-1,13.4
		c-0.2,22.8,0,41.1,1.7,63.9c0.1,1.8,0.6,6.1,1.5,7.7c1.6,2.7,5.3,2.8,8.1,2.9c14.2,0.6,28.1-0.2,42.2-1.7c2.2-0.2,4.5-0.5,6.3-1.8
		c3.8-2.9,1.3-11.5,1.2-15.7c-0.1-7.5-0.1-15.1,0-22.6c0.1-8.3,0.5-16.9,0.4-25.4c0-4.5,0-9.1-0.4-13.6c-0.2-2.7-0.1-7.4-2.6-9.2
		c-1.7-1.3-5.6-0.6-7.6-0.6c-3.1-0.1-6.3-0.1-9.4-0.1c-7.3,0-14.6,0.1-22,0.4C36.8,5.4,26.1,3.8,22.9,7.7z"/>
	<path stroke-miterlimit="10" d="M83.8,84.3c-3.6,1-7,1.5-10.6,2.2
		c-4.6,0.9-9.5,0.9-14.2,1c-12.2,0.2-23-0.7-35.1-0.8"/>
	<path stroke-miterlimit="10" d="M29.4,67.4c-3.4-0.3-6.7,0.3-9.6,2.1
		c-2.9,1.7-3.9,4.9-1.8,7.7c1.4,1.8,3.4,2.8,5.4,3.9"/>
	<path stroke-miterlimit="10" d="M28.2,52.3c-1.8,0-3.5-0.4-5.3-0.2
		c-1.8,0.1-3.5,0.7-4.9,1.8c-4.6,3.8,0,8.3,3.7,10.1"/>
	<path stroke-miterlimit="10" d="M29.9,34.8c-3.8-0.3-7.2-0.7-10.7,1.3
		c-2.4,1.4-3.6,4.1-2,6.7c1,1.7,2.8,2.7,4.6,3.6"/>
	<path stroke-miterlimit="10" d="M29.4,16.2c-3.2-0.2-7.1-0.5-9.8,1.6
		c-1.8,1.4-2.9,3.9-2.4,6.2s2.6,4.2,4.9,4.1"/>
	<path stroke-miterlimit="10" d="M67.4,61.9c-3.7,1.9-9.1,1.9-13.1,1.8
		c-3.7-0.1-7.5-1-10.6-3.1c-3.6-2.5-4.7-5.8-6.1-9.7c-1.7-4.6,0.7-9.2,3.4-12.9c3.8-5,8.9-6.8,14.7-6.7c3.4,0.1,9.6,1.8,11.8,4.6
		c2,2.5,3.4,5.7,3.9,8.8c0.3,1.6,0.1,3.2-0.7,4.6c-1.6,2.8-6.4,4.2-8.4,1.2c-0.8-1.1-1.2-2.5-1.7-3.8c-2-4.3-7.6-7.5-12.1-4.6
		c-2,1.4-3.2,4-2.6,6.4c0.7,2.6,3.2,4.4,5.8,5.1c1.9,0.5,4,0.6,5.8-0.3c2.5-1.2,4.3-5.1,2.6-7.6"/>
</svg>
