<?xml version="1.0" encoding="utf-8"?>
<!-- Generator: Adobe Illustrator 18.0.0, SVG Export Plug-In . SVG Version: 6.00 Build 0)  -->
<!DOCTYPE svg PUBLIC "-//W3C//DTD SVG 1.1//EN" "http://www.w3.org/Graphics/SVG/1.1/DTD/svg11.dtd">
<svg version="1.1" id="Capa_1" xmlns="http://www.w3.org/2000/svg" xmlns:xlink="http://www.w3.org/1999/xlink" x="0px" y="0px"
	 viewBox="0 82.8 600.6 409.8" enable-background="new 0 82.8 600.6 409.8" xml:space="preserve">
<g>
	<path fill="#333333" d="M596.7,256c-16-1-20.5,8-25.3,14c-1.2,1.6-2.8,3-4,4.8c-1.4,1.8-2.8,3.6-4.4,5.4
		c-7.8,8.6-18.9,15.4-30.7,16.4c-3,0.2-6-0.2-8.6-1.4c-2.4-1.2-3.8-3.2-4.6-5.8c-1.6-5.2-0.2-10.8,0.6-15.8
		c1.6-8.4,4.4-16.8,7.4-24.7c2.8-7.4,6.2-14.4,9.2-21.7c0.4-1,0.8-2.2,1.2-3.2c1.2-3.2-1.2-5.4-4.4-6.8c-3.4-1.6-7.6,0-9.2,3.4
		c-2.2,5-4.2,11.2-5.4,15c-6.6,12.4-15.6,23.3-26.1,32.3c-11.2,9.4-21.9,14.2-31.7,14c-9.6-0.2-19.1-3.4-25.3-15.8
		c32.5-12.2,44.5-39.9,47.9-64.2c1.6-12-2.6-17.8-6.6-20.3c-3-2-6.8-2.8-11.2-2.4c-8.4,0.8-15.6,5-21.9,10.4
		c-3.8,3.2-7.4,6.6-10.6,10.6c-1.6,2-3,4-4.4,6c-0.6,1-2.4,2.8-2.6,4c0.2-3,0.6-10,0.6-12.8c0-0.6,1.4-2,1.8-2.4
		c10.6-13.8,20.7-28.3,28.1-44.1c3-6.4,6-14.6,3.6-21.5c-6-18-31.3-14-39.7-0.6c-4.4,7-4.8,14-5.8,21.9c-1.6,13.4,0.4,27.5-0.4,40.9
		c0,0.6,0,1,0,1.6c-2,3.2-11,15-13.6,18.8c-5.8,8.8-10.8,18.4-16.2,27.3c-6.6,10.8-12,18.9-18.2,28.9c-6,10-13.6,20.5-20.3,29.9
		c-3.8,5-8.6,10.8-14,14.2c-7.8,4.8-17.4-0.8-22.3-7.2c-6.8-9-15.6-31.3-16-38.9c3.4-1.8,23.9-17,27.5-19.7
		c10-8,23.7-22.1,28.5-30.9c1-1.6,1.6-3.4,2.4-5.2c8.8-19.1-3.6-34.9-17.2-38.7c-4.2-1.2-8.8-1.6-13.2-0.6c-5.4,1.2-9.8,2.6-15,7.2
		c-0.4-1.6,0.4-9,0.6-11c0-0.6,4.2-2.8,4.8-3.2c1.8-1.2,3.6-2.6,5.2-4c3.4-2.8,6.6-6,9.4-9.4c5.2-6.8,8.2-15.6,5-23.9
		c-3.2-8-10.8-16.6-20.3-15.8c-5.4,0.6-10.4,4.4-12.8,10.2c-1.8,4.2-2,8.8-2.2,12.4c-0.4,6-0.2,12.2-0.2,18c0,6.2,0,5.8-0.4,12.2
		c-0.8,0.2-1.6,0.4-2.4,0.6c-14.2,3.6-31.1-8-39.5-17.4c-2.4-2.8-4.2,1.2-7,3.8c-2.6,2.6-1.4,5.2,1.4,7.6
		c12.8,10.4,37.5,15.8,47.5,12.2c0.2,1.2-0.8,13.2-1,14.6c-2.4,21.5-8,47.9-14.8,70.6c-0.2,0.4-0.2,0.6-0.4,1c-0.6,2-1,5.6-2.4,7.2
		c-1,1.2-4.6,4-7.6,5.4c-11.4,5.6-23.1,10.8-35.1,14.6c-8,2.6-16.4,4.6-24.7,6c-4.6,0.8-9.2,1.2-13.8,0.8c-3.8-0.4-8-1.8-10.4-5
		c-2.8-3.8-0.6-7.6,0-11.6c0.2-0.8,8.8-4.2,10-4.6c3.4-1.4,6.6-2.4,9.8-4c6.6-3,13.2-6.4,19.5-10c11-6.2,22.1-13.8,29.3-24.5
		c3.2-4.8,6-10.8,5.8-16.8c-0.4-16-16.6-28.7-31.9-23.7c-16.8,6-29.1,18.6-37.3,33.9c-5.6,10.8-9.6,22.5-13.2,34.1
		c-0.4,1.2-1.6,6.2-3,6.6c-1.2,0.4-2.4,1-3.4,1.4c-5.6,2.2-11.2,4.2-17,6c-2.8,0.8-5.6,1.6-8.6,2.4c-2.6,0.6-6.4,1.6-9.6,2.2
		c0-4.2-0.4-9-1.4-13.2c-1.8-7.8-4.6-15.6-9-22.3c-4.2-6.4-9.6-11.8-16-16.2c-0.4-0.2-2-1.6-2.4-1.4c16.8-4.6,39.9-16.4,50.3-30.3
		c18-24.1,11.4-45.7-4-58.4c-6.4-5.2-12.8-7.4-22.5-8.4c-9.2-0.8-26.9,1.4-35.5,4.2c0.8-13.4,1.2-32.9,0.6-46.5
		c-0.2-3.4-13.2-0.4-13,3.2c0.6,15.2,0.6,33.7-0.6,48.5c-23.3,10.4-43.5,27.1-55.3,37.9c-14,13-22.7,30.7-25.9,49.5
		c-3,18.2-2.2,39.9,11.8,53.5c22.9,22.5,47.9-18.9,56.1-37.1c1-2.2,1.4-4.8,3-6.6c1.8-2,5.4-2.2,8-2.4c10.2-1.2,18.6,0.8,26.3,7.4
		c5.6,4.8,10.2,10.8,12.8,17.6c0.6,1.6,0.8,3.2,1.4,4.8c0.6,2,1.4,4,2,6.2c1,4.2,1.2,8.4,1,12.6c0,0.2-7.4,1.4-8,1.6
		c-2.6,0.6-5.4,1.2-8,1.6c-10,2-20.1,4-29.9,6.6c-13.2,3.6-24.7,9-30.3,22.3c-6.4,15,11.2,27.1,23.7,29.5c6.4,1.2,13.4,1.2,19.7,0.4
		c6.4-0.8,12.6-2.8,17.6-6.8c10.6-8.2,23.5-27.1,26.5-44.7c14.4-3.2,23.9-5.8,37.9-10.8c-0.4,0.2,0.8,6.4,0.8,6.8
		c1,4.4,3.8,7.8,7.8,9.6c3.4,1.6,7.2,2,11,2.2c18,0.8,34.9-4.8,51.7-10c4.8-1.6,9.6-3.2,14.4-5c2.4-0.8,4.8-1.8,7.2-2.8
		c1.8-0.8,5.2-2.4,6.6-3c0.4,0-6,10.6-6.4,11.6c-8.6,16.4-21.5,25.5-26.3,41.5c-1.6,5.2,14.8,13.4,16.2,6.8
		c5.4-24.3,11.8-29.5,21.1-46.7c1.4-2.4,9-13.8,9-14.2c1.6,10.2,4.2,20.7,11,29.7c5.8,7.6,15.2,12.8,24.3,13.8
		c0.8,0,1.6,0.2,2.4,0.2c7.8,0.2,14-3,19.3-8.6c11.4-12,20.7-25.9,29.9-39.5c7.6-11.2,14.8-22.5,21.7-33.9
		c1.2-2.2,17.6-25.1,19.3-26.7c0.6,0.4-0.4,17,0,21.5c1,15.8-7.2,32.7-14.2,46.3c-3.8,7.4-15.6,21.9-17.8,23.9
		c-1.8,1.6-5.2,3.4-6.2,5.6c-2,4.2,6.2,5.6,9.2,5.8c2,0.2,4.6-2.4,6-4.2c3.2-4.6,6.6-9.2,11.6-18.4c4.2-8.2,8-14.4,14-23.5l10.2-0.2
		c4.2,12.4,19.9,26.7,33.3,26.9c13,0.2,26.5-5.4,40.1-17c4.2-3.6,8.2-7.4,12-11.6c0,0.2,0,0.4,0,0.4c-0.2,1.6-0.4,3-0.6,4.6
		c-1,6.6-2.6,18.8,5.2,27.1c6.2,6.6,16.8,8.4,28.7,4.8c7.4-2.2,14.4-5.8,20.5-10.4c3.2-2.4,6.2-4.8,9-7.6c1.2-1.2,6-7.2,7.6-8.6
		c0.2-0.2,0.2-0.2,0.4-0.4c4.2-4.2,9.2-4.6,15-5.2c3.2-0.4,2-6.4,2-10.8C600.1,257.8,598.7,256,596.7,256z M431.1,159.5
		c0.6-7.2,0.6-17.8,3.4-24.3c2.6-6,9.6-12.8,17.2-10c2.2,0.8,9.2,6.4,3,18.9c-6.4,12.8-16.4,22.1-24.7,33.9
		C430.1,172.9,430.7,164.3,431.1,159.5z M311.4,133.8c0-1.8-0.2-3.6,0.2-5.4c0.4-1.4,1.2-2.6,2.4-3.2c2.6-1.2,5.6,0.8,7.4,2.8
		c2.8,3.4,4.2,8,3.4,12.4c-0.6,4.2-2.8,7.2-5.8,10c-3,2.8-5.8,5.8-9.2,8.4C310.1,154.5,311,139.3,311.4,133.8z M202.7,236.7
		c0-0.2,0.2-0.4,0.2-0.4c7-13.4,19.1-29.1,35.9-28.5c1.4,0,3,0.6,4,1.8c3.2,4.2,1,11.4-1.4,15c-3.4,5.2-8,9.6-12.8,13.4
		c-5.6,4.4-11.6,8-18,11.6c-3.2,1.8-6.4,3.4-9.6,5c-1.4,0.6-6.8,3.6-8.8,4.2c0.6-1.2,4.6-9.6,5.6-11.6
		C199.5,243.7,201.1,240.1,202.7,236.7z M66.5,219.1c-0.2,0.6-2.8,0.4-3.2,0.4c-2.2,0-5.2-0.8-7.2,0.6c-1.2,1-1.4,3-1.6,4.4
		c-0.6,3.4-1.8,6.2,1.6,6.8c0,0,4.4,0.8,4.8,0.8c-5,11.4-10.8,22.1-17.2,32.1c-3.2,5.2-7,10.2-11.6,11.6c-4.2,1.4-10-0.6-13.8-4.6
		c-3.6-3.8-6-9.4-7.4-16.8c-4.4-24.5,6-52.1,26.9-71.6c10.2-9,26.5-22.7,45.5-32.5C80.5,174.9,74.9,197.6,66.5,219.1z M98.8,213.2
		c-6,1.4-12.2,2.4-18.2,3.8c1.6-0.4,4.4-13.4,5-14.8c1.8-6.4,3.6-12.6,5-18.9c3-12.8,5-24.5,6.4-37.5c0.6-5.4,16.6-5,20.1-4.6
		c12.6,1.6,25.3,10.6,29.1,22.9c4.4,14.8-4.2,28.1-15.8,36.5C121,207.4,110,210.8,98.8,213.2z M102,329.8c-8.2,6.6-20.9,8-30.3,5.2
		c-3.4-1-6.4-2.6-9.4-4.6c-2.6-1.8-5.6-4.4-7.4-7c-3.2-5.2,3.4-12.4,7-15.6c6.8-6.2,16.2-9.2,24.9-11c0,0,35.9-6.2,36.7-5.4
		C123.1,300.1,113.8,320.5,102,329.8z M321.4,185.4c2.6-0.4,5.4,0,7.8,0.8c5.6,2,9.6,7.6,10.6,13.6c1.2,7-1.4,13.4-5.6,18.9
		c-6.2,8.2-13.6,14.6-21.5,20.9c-5.8,4.6-11.8,10.2-18.2,13.8c2.2-6.6,6-31.9,7.4-38.5c1.4-7.4,3-15.4,7-21.7
		C311.4,188.8,316.2,186,321.4,185.4z M422.4,257c1.6,0.2,4-23.5,4.4-25.7c1.6-8,8.4-14.8,13.4-20.5c5-5.6,8.8-9.6,16.4-11.6
		c2.8-0.8,6.2-0.4,8.4,1.6c1.6,1.4,2.2,3.6,2.4,5.6c0.6,5.6,0,11.2-1.8,16.6c-1.8,5.2-4.4,10.2-7.4,14.8c-2,3.2-4.2,6.4-7,8.8
		c-2.8,2.4-5.8,4.4-9.2,6c-2.8,1.2-5.8,2-8.6,2.8C430.3,256,425.1,257.6,422.4,257z"/>
	<path fill="#333333" d="M537.6,186.2c2-3.2,5.6-5.4,9.4-5.4c0.6,0,1.4,0.2,2,0.2c0.4,0,0.8,0.2,1,0.4l0.4,0.2h0.2l0.4,0.2
		c1.4,0.6,2.8,2,3.4,3.6c0.6,1.6,0.8,3.4,0.4,5c0,0.4-0.2,0.8-0.4,1.2l-0.2,0.4c-0.2,0.4-0.2,0.4-0.4,0.6c-0.4,0.8-1,1.4-1.4,2
		c-1.2,1.2-2.6,2-4,2.4c-0.8,0.2-1.4-2.4-2.2-2.2c-0.4,0-0.6-2.6-1-2.6h-0.6l-0.4,2.6c-0.8,0-1.6,1.2-2.4,0.8
		c-1.6-0.6-3-0.6-4.4-1.6c-0.8-0.6-2.4-1.6-2.2-2.6C535.8,189.6,536.4,188,537.6,186.2z"/>
</g>
<g>
	<path fill="#333333" d="M70.7,374.3c-0.4-2-0.8-4.2-2-6c-3.6-6.2-14.4-11.2-18.4-12.8c6.2,0,15.2-11,15.8-14.2
		c2.2-9.2-3.6-20.9-12.8-21.9c-4.8-0.6-9.8-1-14.8-1.6c-11.4-1.2-22.7-1.8-34.1-0.6c-0.8,0-1.6,0.2-2.4,0.6c-2,1.2-2,6.2,0.2,6
		c2.6-0.2,5.8,0.4,8,0.6c2,19.1,1.4,39.7,1.2,59c0,2.2,0,4.2-0.8,6.2c-1.6,4.6-5.4,6.4-10.4,5.6c-0.6,1.2-1,4,0.2,4.6
		c1.2,0.6,2.4,0.6,3.8,0.6c11.4-0.2,22.9-0.4,34.3-0.6c2.8,0,5.4-0.2,8.2-0.2c5.8-0.2,12.2-0.4,16.8-3.8
		C70.5,391.1,71.9,382.1,70.7,374.3z M28.4,345.2c0.2-7.2,0.4-14.4,0.6-21.5c4.4-0.4,8.6-0.4,13,0c1.2,0.2,2.4,0.2,3.6,0.8
		c1.8,1,3,2.8,4,4.8c3.2,7.2,2,16.2-3.2,22.3c-0.6,0.8-1.2,1.4-2,1.8c-1.4,0.8-3.2,0.8-4.8,0.8c-3.6,0-7.4-0.2-11-0.2
		C28.2,351.2,28.4,348.2,28.4,345.2z M52.1,386.9c-0.4,1.6-1,3.2-2,4.4c-0.6,0.8-1.4,1.4-2.4,1.8c-3,1.8-6.6,2.8-10,3
		c-3.6,0.2-7.8-0.8-8.8-4.2c-0.2-0.8-0.4-1.8-0.4-2.6c-0.6-10.2-0.4-20.3,0.2-30.3c5.2-0.6,10.4,0,15.4,2c1.6,0.6,3,1.4,4.2,2.4
		c3.4,2.6,5.2,6.8,5.6,11C54.3,378.5,53.3,382.9,52.1,386.9z"/>
	<path fill="#333333" d="M158.7,396.1c-1.2-1-2.6-1.2-4-1.8c-9-4.6-13-12.8-18.2-21.1c-1.6-2.6-3.2-6-5.4-8.2c-0.8-0.8-5-4.2-6-4
		c9-2.2,16.6-8.8,20.1-17.2c0.4-1.2,1-2.4,1-3.6c0.8-7.4-7-15-12.8-18.2c-7.4-4-16.6-4.4-24.7-4.6c-2.4,0-27.7,0.6-27.7,1.2
		c-0.2,1.4,0.2,3,1,4.2c2.2-1.2,5.4,0.2,6.6,2.6c1.2,2.4,1.2,5,1,7.6c-0.6,17.4-0.8,34.7-0.8,52.1c0,3.4-0.4,5.6-1,9.2
		c-2,0.6-5.8,0.2-7.4,0.8c-1.8,0.6-1.6,3.4,0,4.2c0.6,0.4-0.4,0.4,0.2,0.4c10.4,0,15.4,0.2,29.3,0.2c0-1.4,0-2.8,0-4
		c-4,0-1.4-0.2-2.8-0.2c-0.4,0-0.2,0-0.6-0.4c-0.4-0.2,0-0.8-0.2-1.2c-2.8-10-3.2-20.5-1.4-30.9c2.6,0,5.4,1,7.6,2.6
		c2.6,1.8,4.4,4.6,6,7.2c2.4,3.8,4.8,7.6,7,11.4c2.4,3.8,4.6,7.8,6.6,11.8c0.8,1.4,1.6,3,3,3.6c0.6,0.2,1.4,0.2,2,0.2
		c4.6,0.2,9.4,0.2,14,0.4c2.8,0,5.6,0.2,8.2-0.6C160.3,398.9,159.9,396.9,158.7,396.1z M104.4,359.4c0.2-6.2,0.8-12.2,0.6-18.4
		c-0.2-7.8-1-10,0.6-15.2c2-3.2,5.2-4,9-3.2c1.8,0.4,3.6,1,5,1.8c7.2,4,12,18.6,6,25.3C120.2,355.8,113.4,360,104.4,359.4z"/>
	<path fill="#333333" d="M218.3,318.3c-7-2.4-14.6-2.6-21.9-1.4c-12,2.2-23.7,8.6-30.7,18.8c-8.8,13-10,31.1-2.8,44.9
		c1.8,3.2,3.6,6.4,6.2,9.2c6,6.4,16.2,11.2,24.7,11.6c5.6,0.4,11.2,0.6,16.8-0.6c7.2-1.6,14.8-4.4,20.5-9.2c2.6-2,4.8-4.6,6.4-7.4
		c4.4-7.8,6.4-17,7-25.7C245.4,341.6,234.7,323.9,218.3,318.3z M223.3,380.9c-3.4,7.4-8.8,14-17.2,15c-0.2,0-0.4,0-0.6,0
		c-7.2,0.8-14.8-2.4-18.8-8.2c-8.4-12.2-13.8-25.3-10-40.3c2.6-10,9.4-23.5,20.7-25.1c8.6-1.4,16.8,5.2,21.7,11.6
		C229.5,346.6,229.7,366.5,223.3,380.9z"/>
	<path fill="#333333" d="M397.6,364.9c1.2,1.6,2.4,3.2,3.6,4.8c2.6,3.4,5.4,6.6,7.8,10.2c3.4,5.2,8.4,13.2,14.6,15.4
		c1,0.4,2.2,0.6,3,1.4c0.8,0.8,1.2,2.2,0.2,2.8c-0.4,0.4-1,0.4-1.4,0.4c-10.4,0.4-20.9,0.6-31.3,0c-1,0-0.8-4.2,0-4.8
		c1-0.6,2.8,0.4,3.6-1c0.6-1.4-1-3.6-1.8-4.6c-3.6-5-6.6-10.6-9.8-15.8c-1.6-2.6-3.4-5.4-5.2-7.8c-1.4-1.8-4-4-5.8-5.4
		c-3.8-2.6-3,7.2-3,9.4c0,6.8,0,13.6-0.2,20.3c0,1.6,0.2,3.6,1.6,4.2c1.2,0.6,2.8,0,4.2,0.4c2,0.4,3,3.2,2,4.8
		c-0.6,1-14.4-0.2-16.2-0.2c-3.6,0-7.4,0-11,0c-1.8,0-3.6,0-5.4-0.2c0-1.2,0-2.6,0-3.8c1.8-1.2,4.4,0.2,6-1c1-0.8,1.2-2.2,1.2-3.4
		c1.4-20.9,1.6-41.9,0.8-62.8c0-2-0.6-5.6-3.4-5.6c-1,0-1.8,0.2-2.8,0.2c-2.6-0.2-2-3.6-1.4-5.2c3.2,0.8,6.6,0.8,10,0.8
		c6.2,0,12.4-0.2,18.8-0.2c1.4,0,2.8-0.8,3.4,0.2c0.6,1.2,0.8,3.2-0.6,3.8c-1.2,0.6-3.6,1-5,1c-0.4,0-1,0-1.4,0.2
		c-0.4,0.4-0.6,1-0.6,1.4c-0.8,10.8-0.8,21.1,0,31.3c4.2-1,7.6-3.6,10.4-6.8c3-3.4,5.6-7.6,8.4-11.2c3-4,6-8.2,8.6-12.4
		c0.2-0.4,0.4-0.6,0.4-1c0-1-1.2-1.6-2.2-1.6s-2.2,0-2.8-0.8c-1-1-0.4-2.8,0.8-3.6c1.2-0.8,2.6-0.8,4-1c6.8-0.2,13.6,0,20.1,0.6
		c1,0,2,0.2,2.4,1c0.6,1,0,2.4-1,3s-2.4,0.6-3.6,0.8c-5,0.8-9.2,3.8-12.6,7.4c-5.4,5.4-10.4,11.2-14.8,17.4c-2,2.8-2,4.4-0.2,7.4
		c1.4,2.2,3.2,3.8,4.8,6C396,362.8,396.8,363.7,397.6,364.9z"/>
	<path fill="#333333" d="M462.2,372.9c0,2.8,0.2,5.8,0,8.6c-0.4,5-0.6,10.6,4.2,13.4c1.2,0.8,2.8,0.8,4.2,0.8
		c6,0.2,12.2,0.4,17.8-1.8c5.6-2.4,9.8-7,13.6-11.6c1.4-1.8,1.4-4.6,5.8-2.2c0.6,3.2-0.6,5.6-1.6,8.6c-0.6,2-1.2,3.8-1.8,5.8
		c-0.4,1.8-1,3.6-2.6,4.6c-1.6,1.2-3.6,1-5.4,1.2c-1.8,0-3.6,0.4-5.4,0.6c-4.6,0-9-1-13.6-1.2c-7.6-0.4-15.2,0.4-22.7,0.8
		c-4.4,0.2-8.6,0.2-13,0c-2.2,0-4.8-0.4-7-1c-0.6-0.2-0.2-3.4,0.4-4c0.8-0.6,2.4-0.6,3.2-0.6c1.4-0.2,4,0.4,5.2-0.4
		c1.4-1,1.2-4.2,1.2-5.8c0-2.6,0-5.4,0-8c0-7.4-0.4-14.8-0.2-22.1c0.2-5.4,0.8-10.6,0.6-16c0-3.6-0.4-7.2-1-10.8
		c-0.4-2.4-0.2-8-3.2-8.4c-1.4-0.2-3.2-0.2-4.6-0.4c-0.6-0.2-1.2-0.6-1.6-1.2c-0.4-0.8,0.6-3,0.6-4c7.2-0.2,14.4-0.2,21.7,0
		c12.4,0.4,24.9,0.6,37.3,0.8c1,0,2.2,0,3.2,0.6c1,0.8,1.4,2,1.8,3.2c1,3.8,2.2,7.4,3.2,11.2c0.2,0.8,0.6,1.8,0.4,2.6
		c-0.2,0.8-0.4,1.8-1.2,2.2c-1.6,0.8-3.2-0.6-4.4-1.8c-2.8-3-5.6-6-9-8.6c-7.6-5.6-17.6-7.6-26.5-5.4c-1.4,0.4-0.8,8.8-0.8,9.8
		c0,5.4,0.8,10.8,0.2,16c-0.4,3-0.2,7.4,4,7.4c4.8,0,11-1.2,14-5.6c1.6-2.6,1.4-8.8,6.4-6.6c0.4,0.2,0.4,10.2,0.4,11.4
		c0.2,4.4,0.6,8.8,0.4,13.2c0,0.8,0.2,2-0.6,2.2c-4.4,1.2-4.4-1.8-5.6-4.8c-3-6.8-11.6-5.2-18.2-5.6c-0.2,0-0.2,7-0.2,7.4
		C462.2,369.5,462.2,371.1,462.2,372.9z"/>
	<path fill="#333333" d="M339,352.8c-2.6-14.8-10-27.3-24.7-32.5c-12.8-4.8-26.1-5-38.5,1.6c-9.6,5.2-15.2,13.6-19.1,23.5
		c-2,5-3.8,10.2-3.8,15.6c0,5.2,1.8,10.2,3.6,15c4,9.4,10,16.8,19.3,21.1c9,4.2,19.1,5.6,28.9,4c13.4-2.4,25.3-11.4,31.3-23.3
		C340.2,369.9,340.6,361,339,352.8z M320.4,371.3c-1,4.6-1.8,8.8-4.2,13c-1.2,2-2.4,3.8-4,5.4c-5,4.6-13.8,8.8-20.5,5.6
		c-4.2-1.8-8.6-5-11.2-8.6c-7.4-10.2-10.8-22.9-9.4-35.3c0.6-4.8,1.8-9.8,3.8-14.2c1.2-2.8,2.8-5.2,4.8-7.4c1.6-2,3.6-3.6,5.8-4.8
		c3.2-1.8,7-2.6,10.6-2.4c4,0.4,7.4,1.2,10.6,4c2.8,2.4,5,5,7,8c4,5.8,6.2,12.8,7.6,19.5C322,359.8,321.6,365.5,320.4,371.3z"/>
	<path fill="#333333" d="M596.9,395.3c-0.4-0.2-1-0.2-1.4-0.2c-1.8,0-3.4-1-4.8-2c-3-2.2-5.8-4.4-8.2-7.2c-3.6-4.2-6.6-9.2-8.6-14.4
		c-2-4.8-5.8-8.8-10.6-11c4.8-3.2,10.8-3.2,15.2-7.4c7.4-7.2,6-21.5-1.2-28.5c-4.4-4.2-10.8-5.2-16.8-5.6s-11.8-0.6-17.8-0.6
		c-8.2-0.2-16.6-0.2-24.7,0.6c-1.2,1.4,0.4,3.6,2.2,4s3.8,0,5.4,0.6c1.8,18.8,1.2,37.5,0.6,56.2c-0.2,3.6-0.2,7-0.4,10.6
		c0,2.4,0.4,3.8-1.8,4.8c-0.6,0.2-6.4,1-6.4,1.2c0.2,1.2,0.2,2.4,0.4,3.8c6.4-0.6,12.8,0,19.1,0c3.6,0,7.6-0.4,11.2,0.2
		c4.2,0.8,4.6-3.6,0.8-4.6c-1-0.4-2.2-0.4-3.2-1c-2-1.2-2.4-3.8-2.6-6.2c-0.4-6.4-1.2-12.8-0.8-19.3c0.2-2.8-0.4-5.4,3.2-5.4
		c2.4,0,5,1.4,6.8,2.8c2.4,1.8,4,6,5.2,8.6c0.8,1.6,1.4,3,2.2,4.6c1.8,3.4,3.6,6.8,5.6,10.2c1.2,2,2.6,4.2,3.8,6.2
		c0.8,1.4,1.4,3.6,3.2,4.2c1.6,0.6,4-0.2,5.8,0c2.2,0,4.6-0.2,7-0.2s5,0,7.4,0c1,0,2.2,0,3-0.4c1-0.4,2-1,2.2-2
		C598.3,396.9,597.9,395.7,596.9,395.3z M551.4,359.2c-0.6,0.2-9,0.6-9-0.2c1-4.6,0.6-10,0.8-14.8c0.2-3.4,0.2-6.8,0.4-10.2
		c0-2,0.2-4,0.2-6c0-1.4,0.2-2.8,0.8-4c1-1.6,2.6-1.4,4.2-1.2c3.8,0.4,7.8,1.2,11.2,3.4c4.2,2.8,5.2,7.2,5.8,11.8
		c0.2,2,0.6,4,0.2,5.8c-0.6,3.8-2.4,7.4-4.8,10.2C558.6,357.2,555.2,358.4,551.4,359.2z"/>
</g>
<g>
	<path fill="#333333" d="M134.1,460.3c0-0.4,0.4-0.8,0.8-0.8h1.8c0.6,0,0.8,0.4,0.8,0.8v13.8h19.1v-13.8c0-0.4,0.4-0.8,0.8-0.8h1.8
		c0.4,0,0.8,0.4,0.8,0.8v31.1c0,0.4-0.4,0.8-0.8,0.8h-1.4c-0.6,0-0.8-0.4-0.8-0.8v-14.2h-19.1v14.2c0,0.4-0.4,0.8-0.8,0.8h-1.8
		c-0.4,0-0.8-0.4-0.8-0.8v-31.1H134.1z"/>
	<path fill="#333333" d="M168.4,491l14.4-31.7c0.2-0.2,0.4-0.6,0.8-0.6h0.4c0.4,0,0.6,0.2,0.8,0.6l14.2,31.7c0.2,0.6,0,1.2-0.8,1.2
		h-1.8c-0.4,0-0.8-0.2-0.8-0.6l-3.4-7.8h-16.8l-3.4,7.8c0,0.2-0.4,0.6-0.8,0.6h-1.8C168.6,492.4,168.2,491.8,168.4,491z M190.8,481
		c-2.4-5.2-4.6-10.4-6.8-15.4h-0.4l-6.8,15.4H190.8z"/>
	<path fill="#333333" d="M208.9,460.3c0-0.4,0.4-0.8,0.8-0.8h2c0.4,0,0.8,0.4,0.8,0.8v31.1c0,0.4-0.4,0.8-0.8,0.8h-2
		c-0.4,0-0.8-0.4-0.8-0.8V460.3z"/>
	<path fill="#333333" d="M224.1,460.3c0-0.4,0.4-0.8,0.8-0.8H237c5.6,0,10.2,4.4,10.2,10c0,4.4-2.8,8-7,9.6l6.4,12
		c0.4,0.6,0,1.4-0.8,1.4h-2.2c-0.4,0-0.6-0.2-0.8-0.4l-6.2-12.6h-9v12c0,0.4-0.4,0.8-0.8,0.8h-2c-0.6,0-0.8-0.4-0.8-0.8V460.3z
		 M236.8,476.2c3.6,0,6.8-3,6.8-6.8c0-3.6-3.2-6.6-6.8-6.6h-9.2v13.6h9.2V476.2z"/>
	<path fill="#333333" d="M272.8,487.4c0.2-0.2,0.4-0.6,0.8-0.8c0.4-0.6,1-1,1.6-0.4c0.4,0.2,3.8,3.6,8,3.6c3.8,0,6.4-2.4,6.4-5.2
		c0-3.2-2.8-5.2-8.2-7.4c-5.2-2.2-8.4-4.4-8.4-9.8c0-3.2,2.6-8.4,10-8.4c4.6,0,8,2.4,8,2.4c0.2,0.2,0.8,0.8,0.2,1.6
		c-0.2,0.2-0.4,0.6-0.6,0.8c-0.4,0.6-0.8,0.8-1.6,0.4c-0.4-0.2-3.4-2.2-6.2-2.2c-5,0-6.6,3.2-6.6,5.2c0,3.2,2.4,5,6.4,6.6
		c6.4,2.6,10.4,5,10.4,10.4c0,5-4.6,8.4-10.2,8.4c-5.6,0-9.4-3.2-10-3.8C272.8,488.6,272.4,488.2,272.8,487.4z"/>
	<path fill="#333333" d="M309.5,462.5h-8.2c-0.6,0-0.8-0.4-0.8-0.8v-1.4c0-0.4,0.4-0.8,0.8-0.8h19.9c0.6,0,0.8,0.4,0.8,0.8v1.4
		c0,0.4-0.4,0.8-0.8,0.8H313v28.9c0,0.4-0.4,0.8-0.8,0.8h-1.8c-0.4,0-0.8-0.4-0.8-0.8v-28.9H309.5z"/>
	<path fill="#333333" d="M341.8,476.4l-11.4-15.8c-0.4-0.6,0-1.4,0.8-1.4h2.2c0.4,0,0.6,0.2,0.8,0.4l9.6,13.2l9.6-13.2
		c0.2-0.2,0.4-0.4,0.8-0.4h2.2c0.8,0,1.2,0.8,0.8,1.4l-11.6,15.8v15c0,0.4-0.4,0.8-0.8,0.8H343c-0.6,0-0.8-0.4-0.8-0.8v-15H341.8z"
		/>
	<path fill="#333333" d="M366.3,460.3c0-0.4,0.4-0.8,0.8-0.8h1.8c0.4,0,0.8,0.4,0.8,0.8v28.9h13.6c0.6,0,0.8,0.4,0.8,0.8v1.4
		c0,0.4-0.4,0.8-0.8,0.8h-16c-0.6,0-0.8-0.4-0.8-0.8v-31.1H366.3z"/>
	<path fill="#333333" d="M395.2,460.3c0-0.4,0.4-0.8,0.8-0.8h1.8c0.4,0,0.8,0.4,0.8,0.8v31.1c0,0.4-0.4,0.8-0.8,0.8H396
		c-0.4,0-0.8-0.4-0.8-0.8V460.3z"/>
	<path fill="#333333" d="M409.2,487.4c0.2-0.2,0.4-0.6,0.8-0.8c0.4-0.6,1-1,1.6-0.4c0.4,0.2,3.8,3.6,8,3.6c3.8,0,6.4-2.4,6.4-5.2
		c0-3.2-2.8-5.2-8.2-7.4c-5.2-2.2-8.4-4.4-8.4-9.8c0-3.2,2.6-8.4,10-8.4c4.6,0,8,2.4,8,2.4c0.2,0.2,0.8,0.8,0.2,1.6
		c-0.2,0.2-0.4,0.6-0.6,0.8c-0.4,0.6-0.8,0.8-1.6,0.4c-0.4-0.2-3.4-2.2-6.2-2.2c-5,0-6.6,3.2-6.6,5.2c0,3.2,2.4,5,6.4,6.6
		c6.4,2.6,10.4,5,10.4,10.4c0,5-4.6,8.4-10.2,8.4s-9.4-3.2-10-3.8C409,488.6,408.6,488.2,409.2,487.4z"/>
	<path fill="#333333" d="M445.7,462.5h-8.2c-0.6,0-0.8-0.4-0.8-0.8v-1.4c0-0.4,0.4-0.8,0.8-0.8h19.9c0.6,0,0.8,0.4,0.8,0.8v1.4
		c0,0.4-0.4,0.8-0.8,0.8h-8.2v28.9c0,0.4-0.4,0.8-0.8,0.8h-1.8c-0.4,0-0.8-0.4-0.8-0.8v-28.9H445.7z"/>
</g>
</svg>
