<?xml version="1.0" encoding="utf-8"?>
<!-- Generator: Adobe Illustrator 18.1.0, SVG Export Plug-In . SVG Version: 6.00 Build 0)  -->
<svg version="1.1" id="Capa_1" xmlns="http://www.w3.org/2000/svg" xmlns:xlink="http://www.w3.org/1999/xlink" x="0px" y="0px"
	 viewBox="0 0 128 128" enable-background="new 0 0 128 128" xml:space="preserve">
<g>
	<path fill="#333333" d="M126,57.3c-3.3-0.2-4.3,1.7-5.3,2.9c-0.3,0.3-0.6,0.6-0.8,1c-0.3,0.4-0.6,0.8-0.9,1.1
		c-1.6,1.8-4,3.2-6.4,3.4c-0.6,0-1.3,0-1.8-0.3c-0.5-0.3-0.8-0.7-1-1.2c-0.3-1.1,0-2.3,0.1-3.3c0.3-1.8,0.9-3.5,1.5-5.2
		c0.6-1.5,1.3-3,1.9-4.5c0.1-0.2,0.2-0.5,0.3-0.7c0.3-0.7-0.3-1.1-0.9-1.4c-0.7-0.3-1.6,0-1.9,0.7c-0.5,1-0.9,2.3-1.1,3.1
		c-1.4,2.6-3.3,4.9-5.5,6.8c-2.3,2-4.6,3-6.6,2.9c-2,0-4-0.7-5.3-3.3c6.8-2.6,9.3-8.4,10-13.4c0.3-2.5-0.5-3.7-1.4-4.2
		c-0.6-0.4-1.4-0.6-2.3-0.5c-1.8,0.2-3.3,1-4.6,2.2c-0.8,0.7-1.5,1.4-2.2,2.2c-0.3,0.4-0.6,0.8-0.9,1.3c-0.1,0.2-0.5,0.6-0.5,0.8
		c0-0.6,0.1-2.1,0.1-2.7c0-0.1,0.3-0.4,0.4-0.5c2.2-2.9,4.3-5.9,5.9-9.2c0.6-1.3,1.3-3.1,0.8-4.5c-1.3-3.8-6.6-2.9-8.3-0.1
		c-0.9,1.5-1,2.9-1.2,4.6c-0.3,2.8,0.1,5.8-0.1,8.6c0,0.1,0,0.2,0,0.3c-0.4,0.7-2.3,3.1-2.8,3.9c-1.2,1.8-2.3,3.9-3.4,5.7
		c-1.4,2.3-2.5,4-3.8,6c-1.3,2.1-2.8,4.3-4.2,6.3c-0.8,1-1.8,2.3-2.9,3c-1.6,1-3.6-0.2-4.7-1.5c-1.4-1.9-3.3-6.6-3.3-8.1
		c0.7-0.4,5-3.6,5.8-4.1c2.1-1.7,5-4.6,6-6.5c0.2-0.3,0.3-0.7,0.5-1.1c1.8-4-0.8-7.3-3.6-8.1c-0.9-0.3-1.8-0.3-2.8-0.1
		c-1.1,0.3-2.1,0.5-3.1,1.5c-0.1-0.3,0.1-1.9,0.1-2.3c0-0.1,0.9-0.6,1-0.7c0.4-0.3,0.8-0.5,1.1-0.8c0.7-0.6,1.4-1.3,2-2
		c1.1-1.4,1.7-3.3,1-5c-0.7-1.7-2.3-3.5-4.2-3.3c-1.1,0.1-2.2,0.9-2.7,2.1c-0.4,0.9-0.4,1.8-0.5,2.6c-0.1,1.3,0,2.6,0,3.8
		c0,1.3,0,1.2-0.1,2.6c-0.2,0-0.3,0.1-0.5,0.1c-3,0.8-6.5-1.7-8.3-3.6c-0.5-0.6-0.9,0.3-1.5,0.8c-0.5,0.5-0.3,1.1,0.3,1.6
		c2.7,2.2,7.8,3.3,9.9,2.6c0,0.3-0.2,2.8-0.2,3.1c-0.5,4.5-1.7,10-3.1,14.8c0,0.1,0,0.1-0.1,0.2c-0.1,0.4-0.2,1.2-0.5,1.5
		c-0.2,0.3-1,0.8-1.6,1.1c-2.4,1.2-4.8,2.3-7.3,3.1c-1.7,0.5-3.4,1-5.2,1.3c-1,0.2-1.9,0.3-2.9,0.2c-0.8-0.1-1.7-0.4-2.2-1
		c-0.6-0.8-0.1-1.6,0-2.4c0-0.2,1.8-0.9,2.1-1c0.7-0.3,1.4-0.5,2.1-0.8c1.4-0.6,2.8-1.3,4.1-2.1c2.3-1.3,4.6-2.9,6.1-5.1
		c0.7-1,1.3-2.3,1.2-3.5c-0.1-3.3-3.5-6-6.7-5c-3.5,1.3-6.1,3.9-7.8,7.1c-1.2,2.3-2,4.7-2.8,7.1c-0.1,0.3-0.3,1.3-0.6,1.4
		c-0.3,0.1-0.5,0.2-0.7,0.3c-1.2,0.5-2.3,0.9-3.6,1.3c-0.6,0.2-1.2,0.3-1.8,0.5c-0.5,0.1-1.3,0.3-2,0.5c0-0.9-0.1-1.9-0.3-2.8
		c-0.4-1.6-1-3.3-1.9-4.7c-0.9-1.3-2-2.5-3.3-3.4c-0.1,0-0.4-0.3-0.5-0.3c3.5-1,8.4-3.4,10.5-6.3c3.8-5,2.4-9.6-0.8-12.2
		c-1.3-1.1-2.7-1.5-4.7-1.8c-1.9-0.2-5.6,0.3-7.4,0.9c0.2-2.8,0.3-6.9,0.1-9.7c0-0.7-2.8-0.1-2.7,0.7c0.1,3.2,0.1,7.1-0.1,10.2
		c-4.9,2.2-9.1,5.7-11.6,7.9c-2.9,2.7-4.8,6.4-5.4,10.4c-0.6,3.8-0.5,8.4,2.5,11.2c4.8,4.7,10-4,11.7-7.8c0.2-0.5,0.3-1,0.6-1.4
		c0.4-0.4,1.1-0.5,1.7-0.5c2.1-0.3,3.9,0.2,5.5,1.5c1.2,1,2.1,2.3,2.7,3.7c0.1,0.3,0.2,0.7,0.3,1c0.1,0.4,0.3,0.8,0.4,1.3
		c0.2,0.9,0.3,1.8,0.2,2.6c0,0-1.5,0.3-1.7,0.3c-0.5,0.1-1.1,0.3-1.7,0.3c-2.1,0.4-4.2,0.8-6.3,1.4c-2.8,0.8-5.2,1.9-6.3,4.7
		c-1.3,3.1,2.3,5.7,5,6.2c1.3,0.3,2.8,0.3,4.1,0.1c1.3-0.2,2.6-0.6,3.7-1.4c2.2-1.7,4.9-5.7,5.5-9.4c3-0.7,5-1.2,7.9-2.3
		c-0.1,0,0.2,1.3,0.2,1.4c0.2,0.9,0.8,1.6,1.6,2c0.7,0.3,1.5,0.4,2.3,0.5c3.8,0.2,7.3-1,10.8-2.1c1-0.3,2-0.7,3-1
		c0.5-0.2,1-0.4,1.5-0.6c0.4-0.2,1.1-0.5,1.4-0.6c0.1,0-1.3,2.2-1.3,2.4c-1.8,3.4-4.5,5.3-5.5,8.7c-0.3,1.1,3.1,2.8,3.4,1.4
		c1.1-5.1,2.5-6.2,4.4-9.8c0.3-0.5,1.9-2.9,1.9-3c0.3,2.1,0.9,4.3,2.3,6.2c1.2,1.6,3.2,2.7,5.1,2.9c0.2,0,0.3,0,0.5,0
		c1.6,0,2.9-0.6,4-1.8c2.4-2.5,4.3-5.4,6.3-8.3c1.6-2.3,3.1-4.7,4.5-7.1c0.3-0.5,3.7-5.3,4-5.6c0.1,0.1-0.1,3.6,0,4.5
		c0.2,3.3-1.5,6.8-3,9.7c-0.8,1.5-3.3,4.6-3.7,5c-0.4,0.3-1.1,0.7-1.3,1.2c-0.4,0.9,1.3,1.2,1.9,1.2c0.4,0,1-0.5,1.3-0.9
		c0.7-1,1.4-1.9,2.4-3.9c0.9-1.7,1.7-3,2.9-4.9l2.1,0c0.9,2.6,4.2,5.6,7,5.6c2.7,0,5.5-1.1,8.4-3.6c0.9-0.8,1.7-1.5,2.5-2.4
		c0,0,0,0.1,0,0.1c0,0.3-0.1,0.6-0.1,1c-0.2,1.4-0.5,3.9,1.1,5.7c1.3,1.4,3.5,1.8,6,1c1.5-0.5,3-1.2,4.3-2.2c0.7-0.5,1.3-1,1.9-1.6
		c0.3-0.3,1.3-1.5,1.6-1.8c0,0,0,0,0.1-0.1c0.9-0.9,1.9-1,3.1-1.1c0.7-0.1,0.4-1.3,0.4-2.3C126.7,57.7,126.5,57.3,126,57.3z
		 M91.4,37.1c0.1-1.5,0.1-3.7,0.7-5.1c0.5-1.3,2-2.7,3.6-2.1c0.5,0.2,1.9,1.3,0.6,4c-1.3,2.7-3.4,4.6-5.2,7.1
		C91.2,39.9,91.3,38.1,91.4,37.1z M66.3,31.7c0-0.4,0-0.8,0-1.1c0.1-0.3,0.3-0.5,0.5-0.7c0.5-0.3,1.2,0.2,1.5,0.6
		c0.6,0.7,0.9,1.7,0.7,2.6c-0.1,0.9-0.6,1.5-1.2,2.1S66.7,36.4,66,37C66,36.1,66.2,32.9,66.3,31.7z M43.6,53.3
		C43.6,53.2,43.6,53.2,43.6,53.3c1.5-2.9,4-6.2,7.6-6c0.3,0,0.6,0.1,0.8,0.4c0.7,0.9,0.2,2.4-0.3,3.1c-0.7,1.1-1.7,2-2.7,2.8
		c-1.2,0.9-2.4,1.7-3.8,2.4c-0.7,0.4-1.3,0.7-2,1c-0.3,0.1-1.4,0.8-1.8,0.9c0.1-0.3,1-2,1.2-2.4C42.9,54.7,43.2,54,43.6,53.3z
		 M15.1,49.6c0,0.1-0.6,0.1-0.7,0.1c-0.5,0-1.1-0.2-1.5,0.1c-0.3,0.2-0.3,0.6-0.3,0.9c-0.1,0.7-0.4,1.3,0.3,1.4c0,0,0.9,0.2,1,0.2
		c-1,2.4-2.3,4.6-3.6,6.7c-0.7,1.1-1.5,2.1-2.4,2.4c-0.9,0.3-2.1-0.1-2.9-1c-0.8-0.8-1.3-2-1.5-3.5c-0.9-5.1,1.3-10.9,5.6-15
		c2.1-1.9,5.5-4.8,9.5-6.8C18,40.3,16.8,45.1,15.1,49.6z M21.8,48.4c-1.3,0.3-2.6,0.5-3.8,0.8c0.3-0.1,0.9-2.8,1-3.1
		c0.4-1.3,0.8-2.6,1-4c0.6-2.7,1-5.1,1.3-7.8c0.1-1.1,3.5-1,4.2-1c2.6,0.3,5.3,2.2,6.1,4.8c0.9,3.1-0.9,5.9-3.3,7.6
		C26.5,47.2,24.2,47.9,21.8,48.4z M22.5,72.8c-1.7,1.4-4.4,1.7-6.3,1.1c-0.7-0.2-1.3-0.5-2-1c-0.5-0.4-1.2-0.9-1.5-1.5
		c-0.7-1.1,0.7-2.6,1.5-3.3c1.4-1.3,3.4-1.9,5.2-2.3c0,0,7.5-1.3,7.7-1.1C26.9,66.6,25,70.8,22.5,72.8z M68.4,42.5
		c0.5-0.1,1.1,0,1.6,0.2c1.2,0.4,2,1.6,2.2,2.8c0.3,1.5-0.3,2.8-1.2,4c-1.3,1.7-2.8,3.1-4.5,4.4c-1.2,1-2.5,2.1-3.8,2.9
		c0.5-1.4,1.3-6.7,1.5-8.1c0.3-1.5,0.6-3.2,1.5-4.5C66.3,43.3,67.3,42.7,68.4,42.5z M89.6,57.5c0.3,0,0.8-4.9,0.9-5.4
		c0.3-1.7,1.8-3.1,2.8-4.3c1-1.2,1.8-2,3.4-2.4c0.6-0.2,1.3-0.1,1.8,0.3c0.3,0.3,0.5,0.8,0.5,1.2c0.1,1.2,0,2.3-0.4,3.5
		c-0.4,1.1-0.9,2.1-1.5,3.1c-0.4,0.7-0.9,1.3-1.5,1.8c-0.6,0.5-1.2,0.9-1.9,1.3c-0.6,0.3-1.2,0.4-1.8,0.6
		C91.2,57.3,90.1,57.7,89.6,57.5z"/>
	<path fill="#333333" d="M113.7,42.7c0.4-0.7,1.2-1.1,2-1.1c0.1,0,0.3,0,0.4,0c0.1,0,0.2,0,0.2,0.1l0.1,0h0l0.1,0
		c0.3,0.1,0.6,0.4,0.7,0.8c0.1,0.3,0.2,0.7,0.1,1c0,0.1,0,0.2-0.1,0.3l0,0.1c0,0.1,0,0.1-0.1,0.1c-0.1,0.2-0.2,0.3-0.3,0.4
		c-0.3,0.3-0.5,0.4-0.8,0.5c-0.2,0-0.3-0.5-0.5-0.5c-0.1,0-0.1-0.5-0.2-0.5h-0.1l-0.1,0.5c-0.2,0-0.3,0.3-0.5,0.2
		c-0.3-0.1-0.6-0.1-0.9-0.3c-0.2-0.1-0.5-0.3-0.5-0.5C113.3,43.4,113.4,43.1,113.7,42.7z"/>
</g>
<g>
	<path fill="#333333" d="M15.9,82.1c-0.1-0.4-0.2-0.9-0.4-1.3c-0.8-1.3-3-2.3-3.9-2.7c1.3,0,3.2-2.3,3.3-3c0.5-1.9-0.8-4.4-2.7-4.6
		c-1-0.1-2.1-0.2-3.1-0.3c-2.4-0.3-4.8-0.4-7.1-0.1c-0.2,0-0.3,0-0.5,0.1c-0.4,0.3-0.4,1.3,0,1.3c0.5,0,1.2,0.1,1.7,0.1
		c0.4,4,0.3,8.3,0.3,12.3c0,0.5,0,0.9-0.2,1.3c-0.3,1-1.1,1.3-2.2,1.2c-0.1,0.3-0.2,0.8,0,1s0.5,0.1,0.8,0.1c2.4,0,4.8-0.1,7.2-0.1
		c0.6,0,1.1,0,1.7,0c1.2,0,2.6-0.1,3.5-0.8C15.9,85.6,16.2,83.7,15.9,82.1z M7.1,76c0-1.5,0.1-3,0.1-4.5c0.9-0.1,1.8-0.1,2.7,0
		c0.3,0,0.5,0,0.8,0.2c0.4,0.2,0.6,0.6,0.8,1c0.7,1.5,0.4,3.4-0.7,4.7c-0.1,0.2-0.3,0.3-0.4,0.4c-0.3,0.2-0.7,0.2-1,0.2
		c-0.8,0-1.5,0-2.3,0C7,77.2,7.1,76.6,7.1,76z M12.1,84.7c-0.1,0.3-0.2,0.7-0.4,0.9c-0.1,0.2-0.3,0.3-0.5,0.4
		c-0.6,0.4-1.4,0.6-2.1,0.6c-0.8,0-1.6-0.2-1.8-0.9c0-0.2-0.1-0.4-0.1-0.5C7,83.1,7,81,7.2,78.9c1.1-0.1,2.2,0,3.2,0.4
		c0.3,0.1,0.6,0.3,0.9,0.5c0.7,0.5,1.1,1.4,1.2,2.3C12.5,83,12.3,83.9,12.1,84.7z"/>
	<path fill="#333333" d="M34.4,86.6c-0.3-0.2-0.5-0.3-0.8-0.4c-1.9-1-2.7-2.7-3.8-4.4c-0.3-0.5-0.7-1.3-1.1-1.7
		c-0.2-0.2-1-0.9-1.3-0.8c1.9-0.5,3.5-1.8,4.2-3.6c0.1-0.3,0.2-0.5,0.2-0.8c0.2-1.5-1.5-3.1-2.7-3.8c-1.5-0.8-3.5-0.9-5.2-1
		c-0.5,0-5.8,0.1-5.8,0.3c0,0.3,0,0.6,0.2,0.9c0.5-0.3,1.1,0,1.4,0.5c0.3,0.5,0.3,1,0.2,1.6c-0.1,3.6-0.2,7.3-0.2,10.9
		c0,0.7-0.1,1.2-0.2,1.9c-0.4,0.1-1.2,0-1.5,0.2c-0.4,0.1-0.3,0.7,0,0.9c0.1,0.1-0.1,0.1,0,0.1c2.2,0,3.2,0,6.1,0c0-0.3,0-0.6,0-0.8
		c-0.8,0-0.3,0-0.6,0c-0.1,0,0,0-0.1-0.1c-0.1,0,0-0.2,0-0.3c-0.6-2.1-0.7-4.3-0.3-6.5c0.5,0,1.1,0.2,1.6,0.5c0.5,0.4,0.9,1,1.3,1.5
		c0.5,0.8,1,1.6,1.5,2.4c0.5,0.8,1,1.6,1.4,2.5c0.2,0.3,0.3,0.6,0.6,0.8c0.1,0,0.3,0,0.4,0c1,0,2,0,2.9,0.1c0.6,0,1.2,0,1.7-0.1
		C34.7,87.2,34.6,86.8,34.4,86.6z M23,79c0-1.3,0.2-2.6,0.1-3.9c0-1.6-0.2-2.1,0.1-3.2c0.4-0.7,1.1-0.8,1.9-0.7
		c0.4,0.1,0.8,0.2,1,0.4c1.5,0.8,2.5,3.9,1.3,5.3C26.3,78.2,24.9,79.1,23,79z"/>
	<path fill="#333333" d="M46.8,70.4c-1.5-0.5-3.1-0.5-4.6-0.3c-2.5,0.5-5,1.8-6.4,3.9c-1.8,2.7-2.1,6.5-0.6,9.4
		c0.4,0.7,0.8,1.3,1.3,1.9c1.3,1.3,3.4,2.3,5.2,2.4c1.2,0.1,2.3,0.1,3.5-0.1c1.5-0.3,3.1-0.9,4.3-1.9c0.5-0.4,1-1,1.3-1.5
		c0.9-1.6,1.3-3.6,1.5-5.4C52.5,75.2,50.3,71.5,46.8,70.4z M47.9,83.5c-0.7,1.5-1.8,2.9-3.6,3.1c0,0-0.1,0-0.1,0
		c-1.5,0.2-3.1-0.5-3.9-1.7c-1.8-2.6-2.9-5.3-2.1-8.4c0.5-2.1,2-4.9,4.3-5.3c1.8-0.3,3.5,1.1,4.5,2.4C49.2,76.3,49.2,80.4,47.9,83.5
		z"/>
	<path fill="#333333" d="M84.4,80.1c0.3,0.3,0.5,0.7,0.8,1c0.5,0.7,1.1,1.4,1.6,2.1c0.7,1.1,1.8,2.8,3.1,3.2
		c0.2,0.1,0.5,0.1,0.6,0.3c0.2,0.2,0.3,0.5,0,0.6c-0.1,0.1-0.2,0.1-0.3,0.1c-2.2,0.1-4.4,0.1-6.6,0c-0.2,0-0.2-0.9,0-1
		c0.2-0.1,0.6,0.1,0.8-0.2c0.1-0.3-0.2-0.8-0.4-1c-0.8-1-1.4-2.2-2.1-3.3c-0.3-0.5-0.7-1.1-1.1-1.6c-0.3-0.4-0.8-0.8-1.2-1.1
		c-0.8-0.5-0.6,1.5-0.6,2c0,1.4,0,2.8,0,4.2c0,0.3,0,0.8,0.3,0.9c0.3,0.1,0.6,0,0.9,0.1c0.4,0.1,0.6,0.7,0.4,1c-0.1,0.2-3,0-3.4,0
		c-0.8,0-1.5,0-2.3,0c-0.4,0-0.8,0-1.1,0c0-0.3,0-0.5,0-0.8c0.4-0.3,0.9,0,1.3-0.2c0.2-0.2,0.3-0.5,0.3-0.7
		c0.3-4.4,0.3-8.8,0.2-13.1c0-0.4-0.1-1.2-0.7-1.2c-0.2,0-0.4,0-0.6,0c-0.5,0-0.4-0.8-0.3-1.1c0.7,0.2,1.4,0.2,2.1,0.2
		c1.3,0,2.6,0,3.9,0c0.3,0,0.6-0.2,0.7,0c0.1,0.3,0.2,0.7-0.1,0.8c-0.3,0.1-0.8,0.2-1,0.2c-0.1,0-0.2,0-0.3,0
		c-0.1,0.1-0.1,0.2-0.1,0.3c-0.2,2.3-0.2,4.4,0,6.6c0.9-0.2,1.6-0.8,2.2-1.4c0.6-0.7,1.2-1.6,1.8-2.3c0.6-0.8,1.3-1.7,1.8-2.6
		c0-0.1,0.1-0.1,0.1-0.2c0-0.2-0.3-0.3-0.5-0.3c-0.2,0-0.5,0-0.6-0.2c-0.2-0.2-0.1-0.6,0.2-0.8c0.3-0.2,0.5-0.2,0.8-0.2
		c1.4,0,2.8,0,4.2,0.1c0.2,0,0.4,0,0.5,0.2c0.1,0.2,0,0.5-0.2,0.6c-0.2,0.1-0.5,0.1-0.8,0.2c-1,0.2-1.9,0.8-2.6,1.5
		c-1.1,1.1-2.2,2.3-3.1,3.6c-0.4,0.6-0.4,0.9,0,1.5c0.3,0.5,0.7,0.8,1,1.3C84,79.7,84.2,79.9,84.4,80.1z"/>
	<path fill="#333333" d="M97.9,81.8c0,0.6,0,1.2,0,1.8c-0.1,1-0.1,2.2,0.9,2.8c0.3,0.2,0.6,0.2,0.9,0.2c1.3,0,2.6,0.1,3.7-0.4
		c1.2-0.5,2.1-1.5,2.8-2.4c0.3-0.4,0.3-1,1.2-0.5c0.1,0.7-0.1,1.2-0.3,1.8c-0.1,0.4-0.3,0.8-0.4,1.2c-0.1,0.4-0.2,0.8-0.5,1
		c-0.3,0.3-0.8,0.2-1.1,0.3c-0.4,0-0.8,0.1-1.1,0.1c-1,0-1.9-0.2-2.8-0.3c-1.6-0.1-3.2,0.1-4.8,0.2c-0.9,0-1.8,0-2.7,0
		c-0.5,0-1-0.1-1.5-0.2c-0.1,0,0-0.7,0.1-0.8c0.2-0.1,0.5-0.1,0.7-0.1c0.3,0,0.8,0.1,1.1-0.1c0.3-0.2,0.3-0.9,0.3-1.2
		c0-0.5,0-1.1,0-1.7c0-1.5-0.1-3.1,0-4.6c0-1.1,0.2-2.2,0.1-3.3c0-0.8-0.1-1.5-0.2-2.3c-0.1-0.5,0-1.7-0.7-1.8c-0.3,0-0.7,0-1-0.1
		c-0.1,0-0.3-0.1-0.3-0.3c-0.1-0.2,0.1-0.6,0.1-0.8c1.5,0,3,0,4.5,0c2.6,0.1,5.2,0.1,7.8,0.2c0.2,0,0.5,0,0.7,0.1
		c0.2,0.2,0.3,0.4,0.4,0.7c0.2,0.8,0.5,1.5,0.7,2.3c0,0.2,0.1,0.4,0.1,0.5c0,0.2-0.1,0.4-0.3,0.5c-0.3,0.2-0.7-0.1-0.9-0.4
		c-0.6-0.6-1.2-1.3-1.9-1.8c-1.6-1.2-3.7-1.6-5.5-1.1c-0.3,0.1-0.2,1.8-0.2,2.1c0,1.1,0.2,2.3,0,3.3c-0.1,0.6,0,1.5,0.8,1.5
		c1,0,2.3-0.3,2.9-1.2c0.3-0.5,0.3-1.8,1.3-1.4c0.1,0,0.1,2.1,0.1,2.4c0,0.9,0.1,1.8,0.1,2.8c0,0.2,0,0.4-0.1,0.5
		c-0.9,0.3-0.9-0.4-1.2-1c-0.6-1.4-2.4-1.1-3.8-1.2c0,0,0,1.5,0,1.5C97.9,81.1,97.9,81.4,97.9,81.8z"/>
	<path fill="#333333" d="M72.1,77.6c-0.5-3.1-2.1-5.7-5.2-6.8c-2.7-1-5.5-1-8.1,0.3c-2,1.1-3.2,2.8-4,4.9c-0.4,1-0.8,2.1-0.8,3.3
		c0,1.1,0.4,2.1,0.8,3.1c0.8,2,2.1,3.5,4,4.4c1.9,0.9,4,1.2,6,0.8c2.8-0.5,5.3-2.4,6.6-4.9C72.3,81.2,72.4,79.3,72.1,77.6z
		 M68.2,81.5c-0.2,1-0.4,1.8-0.9,2.7c-0.3,0.4-0.5,0.8-0.8,1.1c-1,1-2.9,1.8-4.3,1.2c-0.9-0.4-1.8-1-2.3-1.8c-1.5-2.1-2.3-4.8-2-7.4
		c0.1-1,0.4-2.1,0.8-3c0.3-0.6,0.6-1.1,1-1.5c0.3-0.4,0.8-0.8,1.2-1c0.7-0.4,1.5-0.5,2.2-0.5c0.8,0.1,1.5,0.3,2.2,0.8
		c0.6,0.5,1,1,1.5,1.7c0.8,1.2,1.3,2.7,1.6,4.1C68.5,79,68.5,80.2,68.2,81.5z"/>
	<path fill="#333333" d="M126.1,86.5c-0.1,0-0.2,0-0.3,0c-0.4,0-0.7-0.2-1-0.4c-0.6-0.5-1.2-0.9-1.7-1.5c-0.8-0.9-1.4-1.9-1.8-3
		c-0.4-1-1.2-1.8-2.2-2.3c1-0.7,2.3-0.7,3.2-1.5c1.5-1.5,1.3-4.5-0.3-6c-0.9-0.9-2.3-1.1-3.5-1.2c-1.3-0.1-2.5-0.1-3.7-0.1
		c-1.7,0-3.5,0-5.2,0.1c-0.3,0.3,0.1,0.8,0.5,0.8c0.4,0.1,0.8,0,1.1,0.1c0.4,3.9,0.3,7.8,0.1,11.8c0,0.8,0,1.5-0.1,2.2
		c0,0.5,0.1,0.8-0.4,1c-0.1,0-1.3,0.2-1.3,0.3c0,0.3,0,0.5,0.1,0.8c1.3-0.1,2.7,0,4,0c0.8,0,1.6-0.1,2.3,0c0.9,0.2,1-0.8,0.2-1
		c-0.2-0.1-0.5-0.1-0.7-0.2c-0.4-0.3-0.5-0.8-0.5-1.3c-0.1-1.3-0.3-2.7-0.2-4c0-0.6-0.1-1.1,0.7-1.1c0.5,0,1,0.3,1.4,0.6
		c0.5,0.4,0.8,1.3,1.1,1.8c0.2,0.3,0.3,0.6,0.5,1c0.4,0.7,0.8,1.4,1.2,2.1c0.3,0.4,0.5,0.9,0.8,1.3c0.2,0.3,0.3,0.8,0.7,0.9
		c0.3,0.1,0.8,0,1.2,0c0.5,0,1,0,1.5,0s1,0,1.5,0c0.2,0,0.5,0,0.6-0.1c0.2-0.1,0.4-0.2,0.5-0.4C126.4,86.8,126.3,86.6,126.1,86.5z
		 M116.6,78.9c-0.1,0-1.9,0.1-1.9,0c0.2-1,0.1-2.1,0.2-3.1c0-0.7,0-1.4,0.1-2.1c0-0.4,0-0.8,0-1.3c0-0.3,0-0.6,0.2-0.8
		c0.2-0.3,0.5-0.3,0.9-0.3c0.8,0.1,1.6,0.3,2.3,0.7c0.9,0.6,1.1,1.5,1.2,2.5c0,0.4,0.1,0.8,0,1.2c-0.1,0.8-0.5,1.5-1,2.1
		C118.1,78.5,117.3,78.8,116.6,78.9z"/>
</g>
<g>
	<path fill="#333333" d="M29.2,100.1c0-0.1,0.1-0.2,0.2-0.2h0.4c0.1,0,0.2,0.1,0.2,0.2v2.9h4v-2.9c0-0.1,0.1-0.2,0.2-0.2h0.4
		c0.1,0,0.2,0.1,0.2,0.2v6.5c0,0.1-0.1,0.2-0.2,0.2h-0.3c-0.1,0-0.2-0.1-0.2-0.2v-3h-4v3c0,0.1-0.1,0.2-0.2,0.2h-0.4
		c-0.1,0-0.2-0.1-0.2-0.2L29.2,100.1L29.2,100.1z"/>
	<path fill="#333333" d="M36.4,106.5l3-6.6c0,0,0.1-0.1,0.2-0.1h0.1c0.1,0,0.1,0,0.2,0.1l3,6.6c0,0.1,0,0.3-0.2,0.3h-0.4
		c-0.1,0-0.2,0-0.2-0.1l-0.7-1.6h-3.5l-0.7,1.6c0,0-0.1,0.1-0.2,0.1h-0.4C36.4,106.8,36.3,106.7,36.4,106.5z M41.1,104.4
		c-0.5-1.1-1-2.2-1.4-3.2h-0.1l-1.4,3.2H41.1z"/>
	<path fill="#333333" d="M44.9,100.1c0-0.1,0.1-0.2,0.2-0.2h0.4c0.1,0,0.2,0.1,0.2,0.2v6.5c0,0.1-0.1,0.2-0.2,0.2H45
		c-0.1,0-0.2-0.1-0.2-0.2V100.1z"/>
	<path fill="#333333" d="M48,100.1c0-0.1,0.1-0.2,0.2-0.2h2.5c1.2,0,2.1,0.9,2.1,2.1c0,0.9-0.6,1.7-1.5,2l1.3,2.5
		c0.1,0.1,0,0.3-0.2,0.3h-0.5c-0.1,0-0.1,0-0.2-0.1l-1.3-2.6h-1.9v2.5c0,0.1-0.1,0.2-0.2,0.2h-0.4c-0.1,0-0.2-0.1-0.2-0.2L48,100.1
		L48,100.1z M50.7,103.4c0.8,0,1.4-0.6,1.4-1.4c0-0.8-0.7-1.4-1.4-1.4h-1.9v2.8L50.7,103.4L50.7,103.4z"/>
	<path fill="#333333" d="M58.2,105.8c0,0,0.1-0.1,0.2-0.2c0.1-0.1,0.2-0.2,0.3-0.1c0.1,0,0.8,0.8,1.7,0.8c0.8,0,1.3-0.5,1.3-1.1
		c0-0.7-0.6-1.1-1.7-1.5c-1.1-0.5-1.8-0.9-1.8-2.1c0-0.7,0.5-1.8,2.1-1.8c1,0,1.7,0.5,1.7,0.5c0,0,0.2,0.2,0,0.3
		c0,0-0.1,0.1-0.1,0.2c-0.1,0.1-0.2,0.2-0.3,0.1c-0.1,0-0.7-0.5-1.3-0.5c-1,0-1.4,0.7-1.4,1.1c0,0.7,0.5,1,1.3,1.4
		c1.3,0.5,2.2,1,2.2,2.2c0,1-1,1.8-2.1,1.8c-1.2,0-2-0.7-2.1-0.8C58.2,106,58.2,105.9,58.2,105.8z"/>
	<path fill="#333333" d="M65.9,100.5h-1.7c-0.1,0-0.2-0.1-0.2-0.2v-0.3c0-0.1,0.1-0.2,0.2-0.2h4.2c0.1,0,0.2,0.1,0.2,0.2v0.3
		c0,0.1-0.1,0.2-0.2,0.2h-1.7v6c0,0.1-0.1,0.2-0.2,0.2h-0.4c-0.1,0-0.2-0.1-0.2-0.2L65.9,100.5L65.9,100.5z"/>
	<path fill="#333333" d="M72.7,103.5l-2.4-3.3c-0.1-0.1,0-0.3,0.2-0.3h0.5c0.1,0,0.1,0,0.2,0.1l2,2.8l2-2.8c0,0,0.1-0.1,0.2-0.1h0.5
		c0.2,0,0.3,0.2,0.2,0.3l-2.4,3.3v3.1c0,0.1-0.1,0.2-0.2,0.2h-0.4c-0.1,0-0.2-0.1-0.2-0.2L72.7,103.5L72.7,103.5z"/>
	<path fill="#333333" d="M77.8,100.1c0-0.1,0.1-0.2,0.2-0.2h0.4c0.1,0,0.2,0.1,0.2,0.2v6h2.8c0.1,0,0.2,0.1,0.2,0.2v0.3
		c0,0.1-0.1,0.2-0.2,0.2H78c-0.1,0-0.2-0.1-0.2-0.2L77.8,100.1C77.9,100.1,77.8,100.1,77.8,100.1z"/>
	<path fill="#333333" d="M83.9,100.1c0-0.1,0.1-0.2,0.2-0.2h0.4c0.1,0,0.2,0.1,0.2,0.2v6.5c0,0.1-0.1,0.2-0.2,0.2H84
		c-0.1,0-0.2-0.1-0.2-0.2V100.1z"/>
	<path fill="#333333" d="M86.8,105.8c0,0,0.1-0.1,0.2-0.2c0.1-0.1,0.2-0.2,0.3-0.1c0.1,0,0.8,0.8,1.7,0.8c0.8,0,1.3-0.5,1.3-1.1
		c0-0.7-0.6-1.1-1.7-1.5c-1.1-0.5-1.8-0.9-1.8-2.1c0-0.7,0.5-1.8,2.1-1.8c1,0,1.7,0.5,1.7,0.5c0,0,0.2,0.2,0,0.3
		c0,0-0.1,0.1-0.1,0.2c-0.1,0.1-0.2,0.2-0.3,0.1c-0.1,0-0.7-0.5-1.3-0.5c-1,0-1.4,0.7-1.4,1.1c0,0.7,0.5,1,1.3,1.4
		c1.3,0.5,2.2,1,2.2,2.2c0,1-1,1.8-2.1,1.8c-1.2,0-2-0.7-2.1-0.8C86.7,106,86.7,105.9,86.8,105.8z"/>
	<path fill="#333333" d="M94.4,100.5h-1.7c-0.1,0-0.2-0.1-0.2-0.2v-0.3c0-0.1,0.1-0.2,0.2-0.2h4.2c0.1,0,0.2,0.1,0.2,0.2v0.3
		c0,0.1-0.1,0.2-0.2,0.2h-1.7v6c0,0.1-0.1,0.2-0.2,0.2h-0.4c-0.1,0-0.2-0.1-0.2-0.2L94.4,100.5L94.4,100.5z"/>
</g>
</svg>
