<?xml version="1.0" encoding="utf-8"?>
<!-- Generator: Adobe Illustrator 18.1.0, SVG Export Plug-In . SVG Version: 6.00 Build 0)  -->
<svg version="1.1" id="Capa_1" xmlns="http://www.w3.org/2000/svg" xmlns:xlink="http://www.w3.org/1999/xlink" x="0px" y="0px"
	 viewBox="0 0 128 128" enable-background="new 0 0 128 128" xml:space="preserve">
<path d="M104.5,90.6c-2.5,1-5.1,1.9-7.7,2.7c-1.4,0.4-2.8,0.8-4.2,1.1c-1.3,0.4-3.2,0.8-4.7,1.1c0-2.1-0.3-4.4-0.8-6.4
	c-0.9-3.8-2.3-7.7-4.4-11c-2-3.2-4.7-5.8-7.8-8c-0.1-0.1-1-0.8-1.1-0.8c8.2-2.3,19.6-8,24.7-14.9c8.8-11.9,5.6-22.5-2-28.8
	c-3-2.5-6.3-3.7-11.1-4c-4.5-0.4-13.1,0.8-17.4,2c0.4-6.6,0.6-16.2,0.3-22.9c-0.1-1.8-6.4-0.1-6.3,1.5c0.4,7.4,0.3,16.5-0.4,23.7
	c-11.5,5.4-21.5,13.6-27.1,18.9c-6.8,6.4-11.2,15.2-12.8,24.4c-1.5,8.8-1,19.6,5.8,26.3C38.9,106.8,51,86.3,55,77.4
	c0.5-1.3,0.6-2.7,1.8-3.5c0.4-0.3,0.8-0.4,1.1-0.5c6.2-1.3,10.9-0.5,15.4,3.3c2.8,2.3,5.1,5.3,6.3,8.7c0.3,0.8,0.4,1.6,0.6,2.4
	c0.3,1,0.8,2,1,3c0.5,2,0.6,4.2,0.5,6.2c0,0.1-3.7,0.8-3.9,0.8c-1.3,0.3-2.7,0.5-3.9,0.8c-4.9,1-9.8,1.9-14.6,3.3
	c-6.4,1.8-12.1,4.4-14.9,11c-3.2,7.3,5.6,13.4,11.7,14.5c3.2,0.6,6.6,0.5,9.7,0.1c3.2-0.4,6.2-1.4,8.6-3.3c5.2-4,11.6-13.4,13-22
	c5.8-1.3,10.1-2.4,15.3-4.2c0.9-0.4,1.5-1.1,1.6-2.1L104.5,90.6z M53.5,67.4c-0.1,0.3-1.4,0.3-1.5,0.3c-1.1,0-2.5-0.4-3.5,0.4
	c-0.6,0.5-0.6,1.4-0.8,2.1c-0.3,1.6-0.9,3,0.9,3.3c0,0,2.1,0.4,2.3,0.4c-2.4,5.6-5.3,10.9-8.5,15.8c-1.6,2.5-3.4,4.9-5.7,5.7
	c-2.1,0.6-4.9-0.3-6.7-2.3c-1.8-1.9-3-4.7-3.7-8.2c-2.1-12,2.9-25.5,13.3-35.2c4.8-4.5,12.9-11.2,22.2-16
	C60.3,45.6,57.5,56.7,53.5,67.4z M69.3,64.4c-2.9,0.6-5.9,1.1-8.8,1.9c0.8-0.1,2.1-6.6,2.4-7.3c0.9-3,1.8-6.2,2.4-9.3
	c1.4-6.3,2.4-12,3.2-18.4c0.3-2.7,8.2-2.5,10-2.3c6.2,0.8,12.5,5.3,14.3,11.4c2.1,7.2-2.1,13.8-7.8,17.9
	C80.3,61.6,74.8,63.2,69.3,64.4z M70.9,121.7c-4,3.2-10.4,3.9-14.9,2.5c-1.6-0.5-3.2-1.3-4.5-2.3c-1.3-0.9-2.8-2.1-3.5-3.4
	c-1.5-2.5,1.6-6.1,3.4-7.6c3.3-3,8-4.4,12.2-5.4c0,0,17.5-3,18.1-2.7C81.4,107.2,76.7,117.2,70.9,121.7z"/>
</svg>
