<?xml version="1.0" encoding="utf-8"?>
<!DOCTYPE svg PUBLIC "-//W3C//DTD SVG 1.1//EN" "http://www.w3.org/Graphics/SVG/1.1/DTD/svg11.dtd">
<svg version="1.1" id="Capa_1" xmlns="http://www.w3.org/2000/svg" xmlns:xlink="http://www.w3.org/1999/xlink" x="0px" y="0px"
	 viewBox="0 0 100 100" enable-background="new 0 0 100 100" xml:space="preserve">
<path d="M82.1,71.1c-2,0.8-4,1.5-6.1,2.1c-1.1,0.3-2.2,0.6-3.3,0.9c-1,0.3-2.5,0.6-3.7,0.9c0-1.7-0.2-3.5-0.6-5.1
	c-0.7-3-1.8-6.1-3.5-8.7c-1.6-2.5-3.7-4.6-6.2-6.3c-0.1-0.1-0.8-0.6-0.9-0.6c6.5-1.8,15.5-6.3,19.6-11.8c7-9.4,4.4-17.8-1.6-22.8
	c-2.4-2-5-2.9-8.8-3.2c-3.6-0.3-10.4,0.6-13.8,1.6c0.3-5.2,0.5-12.8,0.2-18.1c-0.1-1.4-5.1-0.1-5,1.2c0.3,5.9,0.2,13.1-0.3,18.8
	C39,24.3,31.1,30.8,26.6,35c-5.4,5.1-8.9,12-10.1,19.3c-1.2,7-0.8,15.5,4.6,20.8c9,8.8,18.6-7.4,21.8-14.5c0.4-1,0.5-2.1,1.4-2.8
	c0.3-0.2,0.6-0.3,0.9-0.4c4.9-1,8.6-0.4,12.2,2.6c2.2,1.8,4,4.2,5,6.9c0.2,0.6,0.3,1.3,0.5,1.9c0.2,0.8,0.6,1.6,0.8,2.4
	c0.4,1.6,0.5,3.3,0.4,4.9c0,0.1-2.9,0.6-3.1,0.6c-1,0.2-2.1,0.4-3.1,0.6c-3.9,0.8-7.8,1.5-11.6,2.6c-5.1,1.4-9.6,3.5-11.8,8.7
	c-2.5,5.8,4.4,10.6,9.3,11.5c2.5,0.5,5.2,0.4,7.7,0.1c2.5-0.3,4.9-1.1,6.8-2.6c4.1-3.2,9.2-10.6,10.3-17.4c4.6-1,8-1.9,12.1-3.3
	c0.7-0.3,1.2-0.9,1.3-1.7L82.1,71.1z M41.7,52.7c-0.1,0.2-1.1,0.2-1.2,0.2c-0.9,0-2-0.3-2.8,0.3c-0.5,0.4-0.5,1.1-0.6,1.7
	c-0.2,1.3-0.7,2.4,0.7,2.6c0,0,1.7,0.3,1.8,0.3c-1.9,4.4-4.2,8.6-6.7,12.5c-1.3,2-2.7,3.9-4.5,4.5c-1.7,0.5-3.9-0.2-5.3-1.8
	c-1.4-1.5-2.4-3.7-2.9-6.5c-1.7-9.5,2.3-20.2,10.5-27.9c3.8-3.6,10.2-8.9,17.6-12.7C47.1,35.4,44.9,44.2,41.7,52.7z M54.2,50.3
	c-2.3,0.5-4.7,0.9-7,1.5c0.6-0.1,1.7-5.2,1.9-5.8c0.7-2.4,1.4-4.9,1.9-7.4c1.1-5,1.9-9.5,2.5-14.6c0.2-2.1,6.5-2,7.9-1.8
	c4.9,0.6,9.9,4.2,11.3,9c1.7,5.7-1.7,10.9-6.2,14.2C62.9,48.1,58.6,49.4,54.2,50.3z M55.5,95.7c-3.2,2.5-8.2,3.1-11.8,2
	c-1.3-0.4-2.5-1-3.6-1.8c-1-0.7-2.2-1.7-2.8-2.7c-1.2-2,1.3-4.8,2.7-6c2.6-2.4,6.3-3.5,9.7-4.3c0,0,13.9-2.4,14.3-2.1
	C63.8,84.2,60.1,92.1,55.5,95.7z"/>
</svg>
