<?xml version="1.0" encoding="utf-8"?>
<!-- Generator: Adobe Illustrator 18.1.1, SVG Export Plug-In . SVG Version: 6.00 Build 0)  -->
<svg version="1.1" id="Capa_1" xmlns="http://www.w3.org/2000/svg" xmlns:xlink="http://www.w3.org/1999/xlink" x="0px" y="0px"
	 viewBox="0 0 184.2 184.2" enable-background="new 0 0 184.2 184.2" xml:space="preserve">
<g>
	<path d="M162.9,90.5c-0.6-1.9-1-5.6-1.1-7.6c0-1.8-1.6-2.7-3-2.5c-0.2-0.1-0.5-0.1-0.8-0.1c-3.1,0-6.1-0.1-9.2-0.3
		c-0.5-5.8-1.1-6.2-1.6-12c-0.2-1.7-1.6-2.6-3-2.5c-0.2-0.1-0.5-0.1-0.8-0.1c-4.1,0-6.3,0-10.4,0.6c-1.9,0.3-2.7,2.1-2.4,3.6
		c-0.2,0.4-0.2,1-0.1,1.5c1,4.6,0.1,3.7,1,8.3c-3.6,0.3-7.1,1-10.4,2.6c-1.2,0.6-1.5,1.6-1.3,2.6c0,0.1,0,0.2,0,0.3
		c0,3.4,0.1,6.8,1.3,10c0.5,1.2,1.5,1.7,2.5,1.8c0.4,0.1,0.8,0.1,1.3,0.1c2.2-0.4,4.4-0.8,6.6-0.9c0,4.1,0.1,8.4,0.6,12.5
		c0.2,1.7,1.7,2.5,3,2.5c0.3,0.1,0.5,0.1,0.8,0.1h12.3c1.4,0,2.2-0.9,2.5-2c0.2-0.3,0.2-0.8,0.2-1.2c-0.5-4.2-0.6-6.7-0.6-11
		c3.6-0.3,7.2-0.4,10.8-0.4c2.5,0,3.1-2.8,2-4.3C163,91.5,163,91,162.9,90.5L162.9,90.5z M148.1,91.5c-0.2,0-0.3,0.1-0.4,0.1
		c-1.4-0.1-2.8,0.8-2.8,2.5c0,4.4,0,7,0.4,11.4H137c-0.3-4-0.3-8.1-0.3-12c0-0.3,0-0.5-0.1-0.7c0-1.3-0.9-2.5-2.5-2.5
		c-2.9,0-5.7,0.4-8.6,0.9c-0.4-1.7-0.4-3.5-0.5-5.3c2.9-1.1,6-1.4,9-1.4c0.1,0,0.3,0,0.4,0c1.5-0.1,3.1-1.3,2.7-3.3
		c-1-5.2-0.3-5-1.4-10.2c2.7-0.2,3.6-0.3,6.4-0.3c0.5,5.5,1,5.7,1.5,11.2c0,0.3,0.1,0.5,0.2,0.7c0.2,1.2,1,2.3,2.5,2.5
		c3.5,0.5,6.9,0.6,10.4,0.6c0.2,1.2,0.4,4.2,0.8,5.4C154.4,91,151.2,91.2,148.1,91.5L148.1,91.5z M148.1,91.5"/>
	<path d="M105,55.4c-2.7-19.2-18.7-26-32.8-26c-1.7,0-3.4,0.1-5,0.3C57.7,30,48.7,34.2,42.9,41
		c-4.9,5.8-7,12.7-6.1,20.1C38.8,77,52.4,88.1,70,88.1c1.9,0,3.8-0.1,5.8-0.4C91.4,85.4,107.2,71.6,105,55.4L105,55.4z M77.6,80.3
		c-2.7,0.8-5.5,1.2-8.3,1.2c-10.6,0-19.9-5.9-24.4-15.4c-2.3-4.8-2.5-9.9-0.6-14.6c2.3-5.8,7.7-10.8,14.4-13.4
		c0.3,0,0.5-0.1,0.7-0.1c2.6-0.8,5.2-1.3,7.8-1.7c0.3,0,0.6,0,0.9,0h0.2c0.4,0,0.8-0.1,1.2-0.2c1-0.1,2-0.1,2.9-0.1
		c13.6,0,23,7,25.6,19.1C99.7,62.4,95.6,75.1,77.6,80.3L77.6,80.3z M77.6,80.3"/>
	<path d="M94.3,93.1c15.1-7.7,22.8-18.1,24.1-32.8c1.2-12.8-4.7-26.2-15.9-36c1.5-3.6,2.5-7,3.2-10.1
		c0.2-1.1,0-2.2-0.7-3c-0.7-0.9-1.9-1.4-3-1.4c-1.1,0-2,0.5-2.5,1.3c-3.2,2.6-7,4.9-11.8,7.1c-4.3-0.9-8.7-1.4-13.3-1.4
		c-20,0-38.5,9.1-48.2,23.6c-6.2,9.2-7.1,21.7-2.5,32.7c6.8,16.3,20.5,22.6,32.9,26.7c0.6,0.2,1.2,0.2,1.8,0.1
		c5.9,1.2,11.3,1.5,16.6,0.9c11.3,9.1,25.9,27.1,23.5,39.6c-1.1,5.7-5.6,9.8-13.5,12.1c-8.5,2.6-19,1.3-26.9-3.2
		c-4.8-2.8-7.4-6.3-7.9-10.4c-1.1-9.3,8.7-20.2,14.6-25.8c1.4-1.4,1.3-3.2,0.5-4.4c-0.5-1.2-1.5-2-2.9-2.2c-4.2-0.5-8.4-1.5-12.7-3
		c-0.4-0.1-0.8-0.2-1.2-0.2c-1.7,0-2.9,1.4-3.2,2.8C34.8,118.5,20,141.9,38,160.8c11.4,11.9,29,13.7,38.5,13.7c2.6,0,5.3-0.1,8-0.4
		c14.4-1.4,31.7-8.8,36.9-25.5C128,127.8,109.4,107.1,94.3,93.1L94.3,93.1z M115.6,142.3c-0.4,13.8-14.6,21.6-27.6,24.3
		c-3.7,0.8-7.6,1.2-11.5,1.2c-10.3,0-20.3-2.7-28.3-7.6c-5.6-3.5-9.7-8.7-11.5-14.8c-3.6-12.3,5.2-24.8,13.5-34.4
		c1.8,0.6,3.7,1,5.5,1.4c-8.9,9.3-18.6,22.9-8,37c5.4,7.1,15.4,11.2,27.5,11.2c2.7,0,5.4-0.2,8-0.6c11.3-1.7,22.8-9.8,23-23.7
		c0.2-17.2-17.5-33.5-28.1-41.7c-0.9-0.7-1.9-0.9-2.8-0.6c-0.3,0-0.6-0.1-1,0c-4.9,0.7-10,0.3-15.7-1c-0.4-0.1-0.7-0.1-1.1-0.1
		c-10.5-3.5-21-8.5-26.8-20.7c-4.6-9.7-3.8-20.4,2.3-29.5c7.8-11.6,24-19.1,41.4-19.1c4.3,0,8.4,0.5,12.2,1.4
		c0.7,0.2,1.5,0.1,2.1-0.1c0.5,0,1.1-0.1,1.6-0.3c2-0.9,3.9-1.9,5.8-2.9c-0.2,0.6-0.5,1.2-0.7,1.7c-0.2,0.4-0.3,0.8-0.3,1.2
		c-0.3,1.4,0.1,2.8,1.3,3.6c10.1,7.9,15.5,19.1,15,31.7c-0.4,12.6-8.2,21.8-24.5,28.9c-0.8,0.3-1.3,0.9-1.6,1.5
		c-1,1.4-0.9,3,0.4,4.2C96.4,104.2,116.2,122.1,115.6,142.3L115.6,142.3z M115.6,142.3"/>
</g>
</svg>
