<?xml version="1.0" encoding="utf-8"?>
<!-- Generator: Adobe Illustrator 17.0.2, SVG Export Plug-In . SVG Version: 6.00 Build 0)  -->
<!DOCTYPE svg PUBLIC "-//W3C//DTD SVG 1.1//EN" "http://www.w3.org/Graphics/SVG/1.1/DTD/svg11.dtd">
<svg version="1.1" id="Capa_1" xmlns="http://www.w3.org/2000/svg" xmlns:xlink="http://www.w3.org/1999/xlink" x="0px" y="0px"
	viewBox="0 0 100 100" enable-background="new 0 0 100 100" xml:space="preserve">
<g>
	<path d="M90.547,7.903c0.678-1.44-0.025-3.607-2.12-3.659C65.039,3.655,34.777,5.469,11.39,4.572
		c-0.738-0.028-1.296,0.223-1.69,0.616c-0.8,0.326-1.424,1.044-1.424,2.17c-0.011,27.813-1.186,56.299,2.71,83.92
		c0.125,0.884,0.598,1.401,1.195,1.633c0.395,0.495,1.002,0.832,1.832,0.827c4.482-0.023,10.924-0.304,15.407-0.328
		c0.958-0.005,1.621-0.461,2-1.089c0.646-0.375,1.114-1.048,1.114-2.025V62.432c0-0.123-0.02-0.232-0.034-0.346
		c0.015-0.104,0.034-0.208,0.034-0.31c0-1.474-1.13-2.282-2.458-2.459c-1.819-0.242-4.627-0.305-6.456-0.321
		c-0.099-0.58-0.21-2.141-0.313-2.72c1.67-0.406,4.364-0.549,6.113-0.564c0.28-0.002,0.525-0.054,0.755-0.126
		c1.292,0.08,2.548-0.687,2.359-2.333c-0.912-7.921-0.938-14.846-0.338-22.791c3.297-7.933,11.98-10.754,20.007-9.747v3.859
		c-14.401,0.533-17.163,14.665-14.008,27.038c0.079,0.31,0.207,0.565,0.357,0.788c0.174,1.059,0.954,2,2.341,2h6.065v3.943
		c-2.006,1.037-4.12,0.745-6.391,1.062c-0.027,0.004-0.049,0.017-0.075,0.022c-1.278-0.063-2.529,0.712-2.385,2.349
		c0.613,6.983,0.977,20.864,1.311,27.865c0.058,1.218,0.827,1.963,1.739,2.243c0.299,0.137,0.647,0.216,1.047,0.216
		c15.846,0.012,29.728,0.293,45.567-0.328c0.919-0.036,1.563-0.483,1.949-1.088c0.657-0.375,1.143-1.049,1.165-2.027
		c0.617-26.882-0.305-53.761-0.328-80.643C90.559,7.975,90.549,7.942,90.547,7.903z M85.998,86.912
		c-14.574,0.511-27.188,0.305-41.768,0.275c-0.274-6.804-0.587-17.727-1.035-23.271c2.637-0.541,5.156-0.588,7.463-1.984
		c0.789-0.477,1.129-1.177,1.161-1.888c0.037-0.175,0.057-0.363,0.057-0.563v-7.54c0-1.593-1.241-2.384-2.476-2.377
		c-0.198-0.049-0.407-0.082-0.639-0.082h-6.023c-2.215-9.538-0.964-20.471,11.269-19.997c1.248,0.048,1.995-0.686,2.26-1.598
		c0.506-0.395,0.854-1.005,0.854-1.844v-7.54c0-1.601-1.253-2.391-2.494-2.375c-11.395-1.928-22.762,2.075-27.25,13.195
		c-0.212,0.525-0.229,0.993-0.116,1.397c-0.521,7.059-0.541,13.107,0.114,20.144c-2.212,0.138-5.407,0.502-7.46,1.328
		c-1.154,0.464-1.965,1.468-1.768,2.732c-0.002,0.205,0.009,0.412,0.05,0.62c0.365,1.851,0.673,4.696,0.983,6.556
		c0.193,1.158,1.454,1.855,2.563,1.792c0.046,0.002,0.087,0.013,0.136,0.013c1.587,0,4.155,0.013,5.736,0.107v24.511
		c-3.359,0.062-8.683,0.213-12.042,0.27c-3.533-26.066-2.459-52.992-2.389-79.25C35.4,10.26,63.774,8.728,85.646,9.108
		C85.692,35.044,86.53,60.977,85.998,86.912z"/>
</g>
</svg>
